<?xml version="1.0" encoding="UTF-8"?>
<!DOCTYPE svg PUBLIC "-//W3C//DTD SVG 1.1//EN" "http://www.w3.org/Graphics/SVG/1.1/DTD/svg11.dtd">
<svg xmlns="http://www.w3.org/2000/svg" version="1.1" width="1500px" height="667px" style="shape-rendering:geometricPrecision; text-rendering:geometricPrecision; image-rendering:optimizeQuality; fill-rule:evenodd; clip-rule:evenodd" xmlns:xlink="http://www.w3.org/1999/xlink">
<g><path style="opacity:0.991" fill="#002ae6" d="M 155.5,153.5 C 154.368,167.455 154.202,181.455 155,195.5C 155.383,194.944 155.883,194.611 156.5,194.5C 180.054,176.055 205.721,161.222 233.5,150C 240.218,148.457 246.885,146.791 253.5,145C 269.5,144.333 285.5,144.333 301.5,145C 329.778,151.955 350.278,168.455 363,194.5C 390.795,172.354 421.629,156.187 455.5,146C 473.461,144.418 491.461,144.084 509.5,145C 541.981,153.145 563.148,173.312 573,205.5C 574.082,211.581 575.416,217.581 577,223.5C 578.474,319.815 578.974,416.149 578.5,512.5C 544.833,512.5 511.167,512.5 477.5,512.5C 477.971,431.813 477.471,351.147 476,270.5C 473.686,263.709 470.186,257.543 465.5,252C 459.883,248.681 453.883,246.514 447.5,245.5C 439.143,246.758 431.143,249.258 423.5,253C 405.646,264.092 388.313,275.925 371.5,288.5C 370.667,362.831 370.167,437.164 370,511.5C 336.24,512.496 302.406,512.829 268.5,512.5C 268.667,433.499 268.5,354.499 268,275.5C 266.049,257.716 256.216,247.716 238.5,245.5C 228.433,247.692 218.767,251.192 209.5,256C 193.521,266.566 178.021,277.733 163,289.5C 162.83,363.54 162.33,437.54 161.5,511.5C 128.173,512.5 94.84,512.833 61.5,512.5C 61.5,392.5 61.5,272.5 61.5,152.5C 92.9068,152.175 124.24,152.508 155.5,153.5 Z"/></g>
<g><path style="opacity:0.987" fill="#002ae6" d="M 747.5,144.5 C 806.071,135.454 855.571,152.121 896,194.5C 895.859,180.425 896.693,166.592 898.5,153C 930.405,152.171 962.238,152.338 994,153.5C 994.832,273.07 994.665,392.57 993.5,512C 961.5,512.667 929.5,512.667 897.5,512C 896.676,498.242 896.176,484.408 896,470.5C 858.381,510.954 811.881,527.787 756.5,521C 710.285,515.312 672.119,494.812 642,459.5C 596.396,401.559 584.729,337.225 607,266.5C 632.101,200.551 678.934,159.885 747.5,144.5 Z M 777.5,229.5 C 821.321,226.164 855.487,242.497 880,278.5C 905.734,327.831 898.9,371.997 859.5,411C 827.044,436.513 791.377,442.513 752.5,429C 711.904,409.573 690.237,377.406 687.5,332.5C 692.243,276.091 722.243,241.758 777.5,229.5 Z"/></g>
<g><path style="opacity:0.989" fill="#002ae6" d="M 1009.5,152.5 C 1049.5,152.333 1089.5,152.5 1129.5,153C 1157.26,195.71 1188.92,235.21 1224.5,271.5C 1259.4,234.777 1290.73,195.277 1318.5,153C 1358.17,152.5 1397.83,152.333 1437.5,152.5C 1437.66,154.527 1437.5,156.527 1437,158.5C 1395.91,219 1350.74,276.333 1301.5,330.5C 1351.03,386.259 1396.2,445.259 1437,507.5C 1437.49,509.134 1437.66,510.801 1437.5,512.5C 1396.83,512.833 1356.16,512.5 1315.5,511.5C 1289.02,467.846 1258.52,427.179 1224,389.5C 1188.84,427.152 1157.67,467.819 1130.5,511.5C 1089.84,512.5 1049.17,512.833 1008.5,512.5C 1008.34,511.127 1008.51,509.793 1009,508.5C 1050.75,445.981 1096.59,386.647 1146.5,330.5C 1095.96,277.033 1050.46,219.7 1010,158.5C 1008.39,156.544 1008.22,154.544 1009.5,152.5 Z"/></g>
<g><path style="opacity:0.012" fill="#0008fa" d="M 155.5,153.5 C 156.496,166.99 156.829,180.656 156.5,194.5C 155.883,194.611 155.383,194.944 155,195.5C 154.202,181.455 154.368,167.455 155.5,153.5 Z"/></g>
<g><path style="opacity:0.986" fill="#002ae6" d="M 782.5,249.5 C 824.825,247.898 853.992,266.564 870,305.5C 881.231,346.495 869.731,379.329 835.5,404C 802.185,422.251 770.185,420.251 739.5,398C 707.851,368.346 700.685,333.512 718,293.5C 732.385,268.264 753.885,253.597 782.5,249.5 Z"/></g>
</svg>
