<?xml version="1.0" encoding="UTF-8"?>
<!DOCTYPE svg PUBLIC "-//W3C//DTD SVG 1.1//EN" "http://www.w3.org/Graphics/SVG/1.1/DTD/svg11.dtd">
<svg xmlns="http://www.w3.org/2000/svg" version="1.1" width="1200px" height="649px" style="shape-rendering:geometricPrecision; text-rendering:geometricPrecision; image-rendering:optimizeQuality; fill-rule:evenodd; clip-rule:evenodd" xmlns:xlink="http://www.w3.org/1999/xlink">
<g><path style="opacity:0.999" fill="#fefefe" d="M 84.5,-0.5 C 427.167,-0.5 769.833,-0.5 1112.5,-0.5C 1159.61,9.44009 1187.77,38.1068 1197,85.5C 1197.67,243.167 1197.67,400.833 1197,558.5C 1188.17,607.333 1159.33,636.167 1110.5,645C 768.833,645.667 427.167,645.667 85.5,645C 38.1068,635.773 9.44009,607.606 -0.5,560.5C -0.5,401.833 -0.5,243.167 -0.5,84.5C 9.16667,37.5 37.5,9.16667 84.5,-0.5 Z"/></g>
<g><path style="opacity:1" fill="#c31e4b" d="M 1105.5,35.5 C 1010.33,35.1673 915.332,35.5006 820.5,36.5C 819.711,36.2172 819.044,35.7172 818.5,35C 914.334,34.1675 1010,34.3342 1105.5,35.5 Z"/></g>
<g><path style="opacity:1" fill="#041e42" d="M 422.5,253.5 C 421.957,253.56 421.624,253.893 421.5,254.5C 449.492,255.5 477.492,255.833 505.5,255.5C 507.299,260.023 508.133,264.689 508,269.5C 500.667,284.833 493.333,300.167 486,315.5C 485.502,318.482 485.335,321.482 485.5,324.5C 495.506,324.334 505.506,324.5 515.5,325C 522.881,336.766 525.714,349.599 524,363.5C 523.293,365.081 522.46,366.581 521.5,368C 495.791,377.714 476.291,394.547 463,418.5C 443.376,457.111 433.209,498.111 432.5,541.5C 431.507,550.318 431.173,559.318 431.5,568.5C 447.5,568.5 463.5,568.5 479.5,568.5C 487.404,581.3 495.071,594.3 502.5,607.5C 365.837,609.498 228.837,610.165 91.5,609.5C 66.4274,606.203 48.9274,592.87 39,569.5C 37.1944,563.944 35.8611,558.278 35,552.5C 34.3333,397.833 34.3333,243.167 35,88.5C 41.6143,58.8856 59.781,41.0523 89.5,35C 300.833,34.3333 512.167,34.3333 723.5,35C 790,121.5 856.5,208 923,294.5C 921.599,306.057 918.932,317.39 915,328.5C 897.307,316.375 877.807,308.542 856.5,305C 819.833,304.667 783.167,304.333 746.5,304C 740.577,300.61 737.41,295.443 737,288.5C 736.271,278.473 736.437,268.473 737.5,258.5C 741.437,258.793 745.27,258.46 749,257.5C 754.68,220.582 749.013,185.582 732,152.5C 724.213,139.713 714.046,129.213 701.5,121C 665.82,98.0618 626.82,88.7284 584.5,93C 534.37,101.136 503.87,129.97 493,179.5C 491.291,188.42 490.291,197.42 490,206.5C 467.62,222.387 445.12,238.053 422.5,253.5 Z"/></g>
<g><path style="opacity:1" fill="#bf0d3e" d="M 1105.5,35.5 C 1136.82,40.3163 1155.65,58.3163 1162,89.5C 1162.17,166.667 1162.33,243.833 1162.5,321C 1162.66,400.196 1162.16,479.363 1161,558.5C 1153.38,587.959 1134.54,604.959 1104.5,609.5C 1061.17,609.5 1017.83,609.5 974.5,609.5C 974.5,595.833 974.5,582.167 974.5,568.5C 1007.67,568.832 1040.67,568.498 1073.5,567.5C 1086.93,563.58 1097.76,555.913 1106,544.5C 1117.3,529.239 1125.96,512.572 1132,494.5C 1132.67,492.833 1132.67,491.167 1132,489.5C 1124.67,480.167 1117.33,470.833 1110,461.5C 1105.86,454.214 1102.53,446.547 1100,438.5C 1098.01,433.84 1095.51,429.506 1092.5,425.5C 1080.5,418.835 1068.83,411.668 1057.5,404C 1052.72,400.522 1048.22,396.689 1044,392.5C 1043.67,383.833 1043.33,375.167 1043,366.5C 1039.46,363.299 1036.3,359.799 1033.5,356C 1029.99,355.073 1026.49,354.239 1023,353.5C 1022.67,349.5 1022.33,345.5 1022,341.5C 1018.98,337.976 1016.14,334.309 1013.5,330.5C 1010.05,329.233 1006.55,328.233 1003,327.5C 1002.67,323.5 1002.33,319.5 1002,315.5C 999.578,311.656 996.911,307.99 994,304.5C 988.654,303.582 983.32,302.582 978,301.5C 925.477,213.111 872.977,124.778 820.5,36.5C 915.332,35.5006 1010.33,35.1673 1105.5,35.5 Z"/></g>
<g><path style="opacity:1" fill="#253c5b" d="M 422.5,253.5 C 450.167,254.167 477.833,254.833 505.5,255.5C 477.492,255.833 449.492,255.5 421.5,254.5C 421.624,253.893 421.957,253.56 422.5,253.5 Z"/></g>
<g><path style="opacity:1" fill="#fdfdfd" d="M 159.5,429.5 C 188.015,427.326 205.849,439.993 213,467.5C 214.195,492.969 202.695,509.469 178.5,517C 153.096,520.383 135.596,510.216 126,486.5C 121.259,457.963 132.426,438.963 159.5,429.5 Z"/></g>
<g><path style="opacity:1" fill="#b2bac5" d="M 432.5,541.5 C 432.5,550.167 432.5,558.833 432.5,567.5C 448.342,567.17 464.009,567.504 479.5,568.5C 463.5,568.5 447.5,568.5 431.5,568.5C 431.173,559.318 431.507,550.318 432.5,541.5 Z"/></g>
<g><path style="opacity:1" fill="#cd4566" d="M 1073.5,567.5 C 1040.67,568.498 1007.67,568.832 974.5,568.5C 974.5,582.167 974.5,595.833 974.5,609.5C 1017.83,609.5 1061.17,609.5 1104.5,609.5C 1061,610.499 1017.34,610.832 973.5,610.5C 973.5,596.167 973.5,581.833 973.5,567.5C 1006.83,567.5 1040.17,567.5 1073.5,567.5 Z"/></g>
<g><path style="opacity:1" fill="#263c5b" d="M 502.5,607.5 C 503.267,608.172 503.934,609.005 504.5,610C 366.666,610.833 228.999,610.666 91.5,609.5C 228.837,610.165 365.837,609.498 502.5,607.5 Z"/></g>
</svg>
