<?xml version="1.0" encoding="UTF-8"?>
<!DOCTYPE svg PUBLIC "-//W3C//DTD SVG 1.1//EN" "http://www.w3.org/Graphics/SVG/1.1/DTD/svg11.dtd">
<svg xmlns="http://www.w3.org/2000/svg" version="1.1" width="328px" height="328px" style="shape-rendering:geometricPrecision; text-rendering:geometricPrecision; image-rendering:optimizeQuality; fill-rule:evenodd; clip-rule:evenodd" xmlns:xlink="http://www.w3.org/1999/xlink">
<g><path style="opacity:0.192" fill="#181818" d="M 25.5,98.5 C 39.504,98.3334 53.504,98.5001 67.5,99C 69.6079,99.3599 71.6079,100.027 73.5,101C 88.5144,101.232 103.514,101.732 118.5,102.5C 148.487,101.365 178.487,101.198 208.5,102C 220.954,103.043 229.621,109.21 234.5,120.5C 235.856,115.89 237.022,111.223 238,106.5C 238.935,103.898 240.768,102.398 243.5,102C 259.9,101.045 276.234,101.378 292.5,103C 293.717,104.648 294.55,106.481 295,108.5C 301.872,145.193 308.872,181.86 316,218.5C 316.667,223.833 316.667,229.167 316,234.5C 314.156,236.886 311.656,238.053 308.5,238C 295.458,238.877 282.458,238.544 269.5,237C 267.741,235.992 266.574,234.492 266,232.5C 265.052,234.57 263.552,236.07 261.5,237C 249.215,238.561 236.882,238.894 224.5,238C 221.648,237.731 218.982,236.897 216.5,235.5C 211.605,236.878 206.605,237.711 201.5,238C 175.5,238.667 149.5,238.667 123.5,238C 120.964,237.661 118.464,237.161 116,236.5C 103.4,238.732 90.7336,239.065 78,237.5C 74.8048,238.178 71.6381,239.012 68.5,240C 52.7791,240.937 37.1124,240.603 21.5,239C 14.5996,236.101 10.7663,230.934 10,223.5C 9.33333,187.5 9.33333,151.5 10,115.5C 11.5774,106.428 16.7441,100.761 25.5,98.5 Z"/></g>
<g><path style="opacity:0.998" fill="#f8f7f8" d="M 20.5,217.5 C 19.5131,181.876 19.1798,146.21 19.5,110.5C 20.9466,106.552 23.6132,103.719 27.5,102C 40.1667,101.333 52.8333,101.333 65.5,102C 70.0622,103.627 72.8955,106.794 74,111.5C 74.6667,146.167 74.6667,180.833 74,215.5C 72.4267,219.827 69.5933,222.993 65.5,225C 52.8333,225.667 40.1667,225.667 27.5,225C 24.2608,223.264 21.9274,220.764 20.5,217.5 Z"/></g>
<g><path style="opacity:0.991" fill="#eef2f5" d="M 110.5,175.5 C 110.539,174.244 110.039,173.244 109,172.5C 108.5,189.163 108.333,205.83 108.5,222.5C 99.5,222.5 90.5,222.5 81.5,222.5C 81.8319,183.996 81.4985,145.663 80.5,107.5C 80.5,106.5 80.5,105.5 80.5,104.5C 91.1667,104.5 101.833,104.5 112.5,104.5C 116.148,119.948 120.315,135.281 125,150.5C 125.5,135.17 125.667,119.837 125.5,104.5C 134.833,104.5 144.167,104.5 153.5,104.5C 153.5,144.167 153.5,183.833 153.5,223.5C 143.251,223.819 133.084,223.486 123,222.5C 118.663,206.816 114.497,191.149 110.5,175.5 Z"/></g>
<g><path style="opacity:0.99" fill="#f3f5f8" d="M 229.5,178.5 C 229.99,188.019 228.99,197.352 226.5,206.5C 221.634,217.107 213.301,222.441 201.5,222.5C 186.833,222.5 172.167,222.5 157.5,222.5C 157.832,183.663 157.499,144.996 156.5,106.5C 164.639,105.169 173.139,104.502 182,104.5C 218.96,99.1186 233.293,114.452 225,150.5C 223.332,154.342 220.832,157.509 217.5,160C 224.924,163.928 228.924,170.094 229.5,178.5 Z"/></g>
<g><path style="opacity:0.991" fill="#e4e7e9" d="M 227.5,206.5 C 229.748,200.484 231.082,194.15 231.5,187.5C 235.987,160.067 240.987,132.734 246.5,105.5C 259.817,104.501 273.15,104.167 286.5,104.5C 293.579,144.225 300.912,183.892 308.5,223.5C 297.167,223.5 285.833,223.5 274.5,223.5C 273.767,215.172 273.101,206.839 272.5,198.5C 268.167,198.5 263.833,198.5 259.5,198.5C 258.662,206.534 257.662,214.534 256.5,222.5C 245.854,223.499 235.187,223.832 224.5,223.5C 225.372,217.809 226.372,212.142 227.5,206.5 Z"/></g>
<g><path style="opacity:1" fill="#ed1f4a" d="M 70.5,111.5 C 70.8297,127.675 70.4964,143.675 69.5,159.5C 67.7499,158.527 66.2499,157.193 65,155.5C 62.0549,147.441 60.3882,139.108 60,130.5C 57.0109,127.345 53.8442,124.345 50.5,121.5C 53.9449,118.444 55.9449,114.611 56.5,110C 55.5606,108.056 54.2273,106.389 52.5,105C 56.5,104.333 60.5,104.333 64.5,105C 67.3859,106.385 69.3859,108.551 70.5,111.5 Z"/></g>
<g><path style="opacity:1" fill="#bdd9ec" d="M 128.5,107.5 C 128.5,128.167 128.5,148.833 128.5,169.5C 128.565,169.938 128.399,170.272 128,170.5C 127.487,169.473 126.987,168.473 126.5,167.5C 127.167,147.5 127.833,127.5 128.5,107.5 Z"/></g>
<g><path style="opacity:1" fill="#0056ad" d="M 160.5,107.5 C 173.167,107.5 185.833,107.5 198.5,107.5C 186.345,108.495 174.011,108.829 161.5,108.5C 161.5,145.167 161.5,181.833 161.5,218.5C 176.01,218.171 190.343,218.504 204.5,219.5C 203.833,219.5 203.167,219.5 202.5,219.5C 188.5,219.5 174.5,219.5 160.5,219.5C 160.5,182.167 160.5,144.833 160.5,107.5 Z"/></g>
<g><path style="opacity:1" fill="#3588c5" d="M 84.5,107.5 C 84.5,144.833 84.5,182.167 84.5,219.5C 91.5,219.5 98.5,219.5 105.5,219.5C 105.5,196.5 105.5,173.5 105.5,150.5C 107.176,151.183 107.843,152.517 107.5,154.5C 106.503,176.327 106.169,198.327 106.5,220.5C 98.8333,220.5 91.1667,220.5 83.5,220.5C 83.1682,182.663 83.5015,144.996 84.5,107.5 Z"/></g>
<g><path style="opacity:1" fill="#0158ad" d="M 84.5,107.5 C 92.8599,107.169 101.193,107.502 109.5,108.5C 110.246,109.736 110.579,111.07 110.5,112.5C 110.631,113.239 110.464,113.906 110,114.5C 109.187,112.564 108.687,110.564 108.5,108.5C 100.833,108.5 93.1667,108.5 85.5,108.5C 85.5,145.167 85.5,181.833 85.5,218.5C 91.8333,218.5 98.1667,218.5 104.5,218.5C 104.169,195.661 104.503,172.994 105.5,150.5C 105.5,173.5 105.5,196.5 105.5,219.5C 98.5,219.5 91.5,219.5 84.5,219.5C 84.5,182.167 84.5,144.833 84.5,107.5 Z"/></g>
<g><path style="opacity:1" fill="#026ab6" d="M 110.5,112.5 C 116.074,130.657 121.407,148.991 126.5,167.5C 126.987,168.473 127.487,169.473 128,170.5C 128.399,170.272 128.565,169.938 128.5,169.5C 129.497,149.34 129.83,129.007 129.5,108.5C 136.167,108.5 142.833,108.5 149.5,108.5C 149.5,145.167 149.5,181.833 149.5,218.5C 141.391,219.114 133.558,218.447 126,216.5C 125.601,216.728 125.435,217.062 125.5,217.5C 119.016,196.814 113.016,175.814 107.5,154.5C 107.843,152.517 107.176,151.183 105.5,150.5C 104.503,172.994 104.169,195.661 104.5,218.5C 98.1667,218.5 91.8333,218.5 85.5,218.5C 85.5,181.833 85.5,145.167 85.5,108.5C 93.1667,108.5 100.833,108.5 108.5,108.5C 108.687,110.564 109.187,112.564 110,114.5C 110.464,113.906 110.631,113.239 110.5,112.5 Z"/></g>
<g><path style="opacity:1" fill="#0e5fb1" d="M 128.5,107.5 C 135.833,107.5 143.167,107.5 150.5,107.5C 150.5,145.167 150.5,182.833 150.5,220.5C 142.167,220.5 133.833,220.5 125.5,220.5C 125.5,219.5 125.5,218.5 125.5,217.5C 125.435,217.062 125.601,216.728 126,216.5C 133.558,218.447 141.391,219.114 149.5,218.5C 149.5,181.833 149.5,145.167 149.5,108.5C 142.833,108.5 136.167,108.5 129.5,108.5C 129.83,129.007 129.497,149.34 128.5,169.5C 128.5,148.833 128.5,128.167 128.5,107.5 Z"/></g>
<g><path style="opacity:1" fill="#4290c9" d="M 160.5,107.5 C 160.5,144.833 160.5,182.167 160.5,219.5C 174.5,219.5 188.5,219.5 202.5,219.5C 188.343,220.496 174.01,220.829 159.5,220.5C 159.168,182.663 159.502,144.996 160.5,107.5 Z"/></g>
<g><path style="opacity:1" fill="#046ab6" d="M 198.5,107.5 C 210.968,106.645 219.468,111.978 224,123.5C 224.667,130.833 224.667,138.167 224,145.5C 221.813,152.184 217.646,157.184 211.5,160.5C 223.243,164.792 228.576,173.292 227.5,186C 227.696,194.364 225.862,202.198 222,209.5C 217.492,215.179 211.659,218.512 204.5,219.5C 190.343,218.504 176.01,218.171 161.5,218.5C 161.5,181.833 161.5,145.167 161.5,108.5C 174.011,108.829 186.345,108.495 198.5,107.5 Z"/></g>
<g><path style="opacity:1" fill="#096bb7" d="M 254.5,216.5 C 253.596,217.209 253.263,218.209 253.5,219.5C 245.167,219.5 236.833,219.5 228.5,219.5C 234.776,182.116 241.443,144.783 248.5,107.5C 260.414,107.179 272.247,107.512 284,108.5C 291.288,145.772 298.121,183.105 304.5,220.5C 295.5,220.5 286.5,220.5 277.5,220.5C 276.287,212.216 275.62,203.883 275.5,195.5C 269.167,195.5 262.833,195.5 256.5,195.5C 255.833,202.5 255.167,209.5 254.5,216.5 Z"/></g>
<g><path style="opacity:1" fill="#fab8c8" d="M 70.5,111.5 C 71.8269,128.005 71.8269,144.671 70.5,161.5C 69.7025,161.043 69.3691,160.376 69.5,159.5C 70.4964,143.675 70.8297,127.675 70.5,111.5 Z"/></g>
<g><path style="opacity:0.721" fill="#969696" d="M 156.5,106.5 C 157.499,144.996 157.832,183.663 157.5,222.5C 172.167,222.5 186.833,222.5 201.5,222.5C 186.676,223.496 171.676,223.829 156.5,223.5C 156.5,184.5 156.5,145.5 156.5,106.5 Z"/></g>
<g><path style="opacity:0.761" fill="#d2d2d2" d="M 19.5,110.5 C 19.1798,146.21 19.5131,181.876 20.5,217.5C 19.8826,217.389 19.3826,217.056 19,216.5C 18.169,180.998 18.3357,145.664 19.5,110.5 Z"/></g>
<g><path style="opacity:0.999" fill="#ebedef" d="M 186.5,126.5 C 190.514,126.334 194.514,126.501 198.5,127C 201.956,129.605 203.289,133.105 202.5,137.5C 203.733,149.598 198.4,154.264 186.5,151.5C 186.5,143.167 186.5,134.833 186.5,126.5 Z"/></g>
<g><path style="opacity:0.394" fill="#181818" d="M 189.5,129.5 C 197.067,127.575 200.401,130.408 199.5,138C 199.507,141.258 199.007,144.425 198,147.5C 195.281,148.444 192.448,148.777 189.5,148.5C 189.5,142.167 189.5,135.833 189.5,129.5 Z"/></g>
<g><path style="opacity:1" fill="#e7edf3" d="M 265.5,127.5 C 266.117,127.611 266.617,127.944 267,128.5C 268.605,144.869 270.438,161.203 272.5,177.5C 268.167,177.5 263.833,177.5 259.5,177.5C 261.428,160.818 263.428,144.152 265.5,127.5 Z"/></g>
<g><path style="opacity:0.53" fill="#202020" d="M 268.5,169.5 C 268.5,171.167 268.5,172.833 268.5,174.5C 266.833,174.5 265.167,174.5 263.5,174.5C 263.5,172.833 263.5,171.167 263.5,169.5C 265.164,144.177 266.831,144.177 268.5,169.5 Z"/></g>
<g><path style="opacity:1" fill="#116ab6" d="M 28.5,104.5 C 34.8421,104.334 41.1754,104.5 47.5,105C 46.0751,107.718 44.7418,110.552 43.5,113.5C 44.3311,115.473 44.4978,117.473 44,119.5C 40.9627,120.709 37.796,121.543 34.5,122C 33.3333,123.167 32.1667,124.333 31,125.5C 27.9992,131.488 25.4992,137.655 23.5,144C 23.131,147.631 24.7976,149.298 28.5,149C 26.051,150.863 25.051,153.363 25.5,156.5C 26.2117,163.257 29.045,168.923 34,173.5C 39.5593,183.393 46.8926,191.726 56,198.5C 56.1335,201.525 57.1335,204.192 59,206.5C 59.1929,211.75 59.6929,216.917 60.5,222C 49.8333,222.667 39.1667,222.667 28.5,222C 26,220.833 24.1667,219 23,216.5C 22.3333,181.167 22.3333,145.833 23,110.5C 24.3597,107.977 26.193,105.977 28.5,104.5 Z"/></g>
<g><path style="opacity:1" fill="#e9ebec" d="M 186.5,170.5 C 199.414,167.934 205.081,173.101 203.5,186C 205.169,199.155 199.503,203.988 186.5,200.5C 186.5,190.5 186.5,180.5 186.5,170.5 Z"/></g>
<g><path style="opacity:1" fill="#fab9c9" d="M 69.5,170.5 C 69.56,169.957 69.8933,169.624 70.5,169.5C 71.8264,184.995 71.8264,200.328 70.5,215.5C 70.8294,200.324 70.4961,185.324 69.5,170.5 Z"/></g>
<g><path style="opacity:0.333" fill="#181818" d="M 189.5,173.5 C 198.639,172.309 202.306,176.309 200.5,185.5C 202.692,195.184 199.026,199.184 189.5,197.5C 189.5,189.5 189.5,181.5 189.5,173.5 Z"/></g>
<g><path style="opacity:1" fill="#ed1c49" d="M 69.5,170.5 C 70.4961,185.324 70.8294,200.324 70.5,215.5C 69.1538,219.22 66.8205,221.22 63.5,221.5C 63.8083,208.204 61.975,195.204 58,182.5C 57,180.833 56,179.167 55,177.5C 53.6662,169.495 52.3329,161.495 51,153.5C 50.4869,150.973 49.3202,148.807 47.5,147C 48.5757,142.993 50.7423,139.826 54,137.5C 55.6059,144.381 57.7725,151.047 60.5,157.5C 58.0968,157.393 56.2635,158.393 55,160.5C 53.0542,170.216 56.8876,174.383 66.5,173C 67.9423,172.623 68.9423,171.79 69.5,170.5 Z"/></g>
<g><path style="opacity:0.682" fill="#9d9d9d" d="M 263.5,169.5 C 263.5,171.167 263.5,172.833 263.5,174.5C 265.167,174.5 266.833,174.5 268.5,174.5C 268.5,172.833 268.5,171.167 268.5,169.5C 269.461,171.265 269.795,173.265 269.5,175.5C 267.167,175.5 264.833,175.5 262.5,175.5C 262.205,173.265 262.539,171.265 263.5,169.5 Z"/></g>
<g><path style="opacity:0.867" fill="#ababab" d="M 229.5,178.5 C 230.167,181.5 230.833,184.5 231.5,187.5C 231.082,194.15 229.748,200.484 227.5,206.5C 227.167,206.5 226.833,206.5 226.5,206.5C 228.99,197.352 229.99,188.019 229.5,178.5 Z"/></g>
<g><path style="opacity:1" fill="#e3edf6" d="M 27.5,200.5 C 28.8221,200.33 29.9887,200.663 31,201.5C 31.1705,203.715 31.8372,205.715 33,207.5C 33.1858,205.1 33.6858,202.766 34.5,200.5C 35.086,200.709 35.586,201.043 36,201.5C 36.4992,206.155 36.6658,210.821 36.5,215.5C 35.1667,215.5 33.8333,215.5 32.5,215.5C 31.2473,206.316 30.5806,206.316 30.5,215.5C 29.5,215.5 28.5,215.5 27.5,215.5C 27.5,210.5 27.5,205.5 27.5,200.5 Z"/></g>
<g><path style="opacity:1" fill="#f7fafc" d="M 37.5,201.5 C 40.1667,201.5 42.8333,201.5 45.5,201.5C 44.6409,205.795 44.4743,210.128 45,214.5C 42.6194,215.435 40.1194,215.768 37.5,215.5C 37.5,210.833 37.5,206.167 37.5,201.5 Z"/></g>
<g><path style="opacity:1" fill="#e1ebf5" d="M 49.5,200.5 C 50.8333,200.5 52.1667,200.5 53.5,200.5C 54.4918,205.452 55.1584,210.452 55.5,215.5C 54.5,215.5 53.5,215.5 52.5,215.5C 52.5,214.5 52.5,213.5 52.5,212.5C 51.5,212.5 50.5,212.5 49.5,212.5C 49.5,213.5 49.5,214.5 49.5,215.5C 48.325,215.719 47.325,215.386 46.5,214.5C 47.1764,209.738 48.1764,205.072 49.5,200.5 Z"/></g>
<g><path style="opacity:1" fill="#6187c5" d="M 40.5,203.5 C 41.5,203.5 42.5,203.5 43.5,203.5C 43.5,204.5 43.5,205.5 43.5,206.5C 42.5,206.5 41.5,206.5 40.5,206.5C 40.5,205.5 40.5,204.5 40.5,203.5 Z"/></g>
<g><path style="opacity:1" fill="#5883c3" d="M 40.5,209.5 C 41.5,209.5 42.5,209.5 43.5,209.5C 43.7778,211.346 43.1112,212.68 41.5,213.5C 40.5713,212.311 40.238,210.978 40.5,209.5 Z"/></g>
<g><path style="opacity:1" fill="#4491ca" d="M 254.5,216.5 C 254.5,217.833 254.5,219.167 254.5,220.5C 245.651,220.826 236.984,220.493 228.5,219.5C 236.833,219.5 245.167,219.5 253.5,219.5C 253.263,218.209 253.596,217.209 254.5,216.5 Z"/></g>
<g><path style="opacity:0.801" fill="#a2a2a2" d="M 80.5,107.5 C 81.4985,145.663 81.8319,183.996 81.5,222.5C 90.5,222.5 99.5,222.5 108.5,222.5C 108.333,205.83 108.5,189.163 109,172.5C 110.039,173.244 110.539,174.244 110.5,175.5C 109.504,191.325 109.17,207.325 109.5,223.5C 99.8333,223.5 90.1667,223.5 80.5,223.5C 80.5,184.833 80.5,146.167 80.5,107.5 Z"/></g>
</svg>
