<?xml version="1.0" encoding="UTF-8"?>
<!DOCTYPE svg PUBLIC "-//W3C//DTD SVG 1.1//EN" "http://www.w3.org/Graphics/SVG/1.1/DTD/svg11.dtd">
<svg xmlns="http://www.w3.org/2000/svg" version="1.1" width="360px" height="107px" style="shape-rendering:geometricPrecision; text-rendering:geometricPrecision; image-rendering:optimizeQuality; fill-rule:evenodd; clip-rule:evenodd" xmlns:xlink="http://www.w3.org/1999/xlink">
<g><path style="opacity:0.99" fill="#f9f9f9" d="M 41.5,18.5 C 54.9565,16.8911 64.6232,22.0577 70.5,34C 66.3358,36.8319 61.8358,38.9986 57,40.5C 55.0738,38.8686 53.2404,37.0353 51.5,35C 45.9463,32.1326 41.9463,33.4659 39.5,39C 39.9903,40.982 40.9903,42.6487 42.5,44C 49.1667,47.3333 55.8333,50.6667 62.5,54C 74.5,65.6667 74.5,77.3333 62.5,89C 50.9586,95.2042 39.6253,94.8708 28.5,88C 23.8933,84.2291 21.2266,79.3958 20.5,73.5C 25.2428,72.4805 29.9095,71.1472 34.5,69.5C 37.4883,76.8268 42.8217,79.6601 50.5,78C 55.2858,74.4999 55.6191,70.6665 51.5,66.5C 45.6581,63.0785 39.6581,59.9119 33.5,57C 21.6871,48.2473 19.8537,37.7473 28,25.5C 31.9601,21.9379 36.4601,19.6046 41.5,18.5 Z"/></g>
<g><path style="opacity:0.963" fill="#f5f5f5" d="M 74.5,19.5 C 90.5,19.5 106.5,19.5 122.5,19.5C 122.5,24.5 122.5,29.5 122.5,34.5C 117.167,34.5 111.833,34.5 106.5,34.5C 106.5,53.8333 106.5,73.1667 106.5,92.5C 100.833,92.5 95.1667,92.5 89.5,92.5C 89.5,73.1667 89.5,53.8333 89.5,34.5C 84.5,34.5 79.5,34.5 74.5,34.5C 74.5,29.5 74.5,24.5 74.5,19.5 Z"/></g>
<g><path style="opacity:0.961" fill="#fbfbfb" d="M 214.5,19.5 C 226.886,19.1057 239.22,19.6057 251.5,21C 263.63,25.6564 268.464,34.4897 266,47.5C 263.003,55.6626 257.503,61.3293 249.5,64.5C 256.079,73.3248 262.413,82.3248 268.5,91.5C 262.193,92.6639 255.859,92.8306 249.5,92C 243.79,83.4131 237.957,74.9131 232,66.5C 231.5,75.1603 231.334,83.8269 231.5,92.5C 225.833,92.5 220.167,92.5 214.5,92.5C 214.5,68.1667 214.5,43.8333 214.5,19.5 Z M 231.5,34.5 C 235.846,34.3343 240.179,34.501 244.5,35C 249.535,38.0133 250.702,42.1799 248,47.5C 247.097,48.7014 245.931,49.5348 244.5,50C 240.179,50.499 235.846,50.6657 231.5,50.5C 231.5,45.1667 231.5,39.8333 231.5,34.5 Z"/></g>
<g><path style="opacity:1" fill="#f77f28" d="M 171.5,30.5 C 170.074,29.1985 168.741,27.6985 167.5,26C 165.284,26.3626 163.118,26.1959 161,25.5C 157.956,26.7814 156.79,29.1148 157.5,32.5C 157.027,33.9063 156.027,34.573 154.5,34.5C 157.036,25.3586 160.036,16.3586 163.5,7.5C 166.566,15.0304 169.232,22.6971 171.5,30.5 Z"/></g>
<g><path style="opacity:0.951" fill="#f7f7f7" d="M 299.5,27.5 C 304.833,27.5 310.167,27.5 315.5,27.5C 315.5,34.8333 315.5,42.1667 315.5,49.5C 323.167,49.5 330.833,49.5 338.5,49.5C 338.5,54.8333 338.5,60.1667 338.5,65.5C 330.833,65.5 323.167,65.5 315.5,65.5C 315.5,72.8333 315.5,80.1667 315.5,87.5C 309.907,87.8066 304.407,87.4732 299,86.5C 298.5,79.5079 298.334,72.5079 298.5,65.5C 290.833,65.5 283.167,65.5 275.5,65.5C 275.5,60.1667 275.5,54.8333 275.5,49.5C 283.167,49.5 290.833,49.5 298.5,49.5C 298.203,42.0796 298.536,34.7463 299.5,27.5 Z"/></g>
<g><path style="opacity:1" fill="#fd6d1b" d="M 171.5,30.5 C 172.234,31.7079 172.567,33.0413 172.5,34.5C 172.111,37.3004 171.611,39.9671 171,42.5C 174.005,44.0015 177.171,45.0015 180.5,45.5C 180.357,47.2624 180.691,48.9291 181.5,50.5C 183.5,52.8333 185.5,55.1667 187.5,57.5C 186.873,58.4168 186.539,59.4168 186.5,60.5C 182.532,59.3748 179.198,57.2081 176.5,54C 176.957,53.586 177.291,53.086 177.5,52.5C 175.639,51.4717 174.305,49.9717 173.5,48C 171.782,47.654 170.115,47.154 168.5,46.5C 167.307,44.4733 165.64,42.9733 163.5,42C 161.429,38.8145 159.429,35.6478 157.5,32.5C 156.79,29.1148 157.956,26.7814 161,25.5C 163.118,26.1959 165.284,26.3626 167.5,26C 168.741,27.6985 170.074,29.1985 171.5,30.5 Z"/></g>
<g><path style="opacity:1" fill="#f87e1b" d="M 172.5,34.5 C 173.413,36.9333 174.413,39.4333 175.5,42C 187.5,42.3333 199.5,42.6667 211.5,43C 203.289,49.384 194.956,55.5507 186.5,61.5C 186.5,61.1667 186.5,60.8333 186.5,60.5C 186.539,59.4168 186.873,58.4168 187.5,57.5C 185.5,55.1667 183.5,52.8333 181.5,50.5C 180.691,48.9291 180.357,47.2624 180.5,45.5C 177.171,45.0015 174.005,44.0015 171,42.5C 171.611,39.9671 172.111,37.3004 172.5,34.5 Z"/></g>
<g><path style="opacity:1" fill="#fa3347" d="M 149.5,43.5 C 149.351,44.552 149.517,45.552 150,46.5C 152.022,47.7865 154.189,48.7865 156.5,49.5C 157.06,52.712 158.727,55.0453 161.5,56.5C 157.957,58.4383 154.29,60.1049 150.5,61.5C 146.794,60.4778 143.461,58.6444 140.5,56C 139.207,55.51 137.873,55.3433 136.5,55.5C 135.841,52.5448 135.508,49.5448 135.5,46.5C 134.5,46.5 133.5,46.5 132.5,46.5C 132.5,45.5 132.5,44.5 132.5,43.5C 138.167,43.5 143.833,43.5 149.5,43.5 Z"/></g>
<g><path style="opacity:1" fill="#f22e5e" d="M 151.5,42.5 C 151.158,43.3382 150.492,43.6716 149.5,43.5C 143.833,43.5 138.167,43.5 132.5,43.5C 132.5,44.5 132.5,45.5 132.5,46.5C 133.5,46.5 134.5,46.5 135.5,46.5C 135.508,49.5448 135.841,52.5448 136.5,55.5C 137.873,55.3433 139.207,55.51 140.5,56C 143.461,58.6444 146.794,60.4778 150.5,61.5C 148.575,63.4619 146.242,64.2952 143.5,64C 133.884,57.3847 124.55,50.3847 115.5,43C 127.495,42.5001 139.495,42.3335 151.5,42.5 Z"/></g>
<g><path style="opacity:1" fill="#fa592f" d="M 157.5,32.5 C 159.429,35.6478 161.429,38.8145 163.5,42C 165.64,42.9733 167.307,44.4733 168.5,46.5C 170.115,47.154 171.782,47.654 173.5,48C 174.305,49.9717 175.639,51.4717 177.5,52.5C 177.291,53.086 176.957,53.586 176.5,54C 179.198,57.2081 182.532,59.3748 186.5,60.5C 186.5,60.8333 186.5,61.1667 186.5,61.5C 185.205,62.4884 183.872,63.4884 182.5,64.5C 180.533,64.2606 178.699,64.5939 177,65.5C 176.727,63.6711 175.893,62.1711 174.5,61C 171.964,60.8138 169.631,60.3138 167.5,59.5C 167.833,58.8333 168.167,58.1667 168.5,57.5C 169.29,56.2058 170.29,55.0391 171.5,54C 171,53.8333 170.5,53.6667 170,53.5C 167.256,54.8031 164.423,55.8031 161.5,56.5C 158.727,55.0453 157.06,52.712 156.5,49.5C 154.189,48.7865 152.022,47.7865 150,46.5C 149.517,45.552 149.351,44.552 149.5,43.5C 150.492,43.6716 151.158,43.3382 151.5,42.5C 152.5,39.8333 153.5,37.1667 154.5,34.5C 156.027,34.573 157.027,33.9063 157.5,32.5 Z"/></g>
<g><path style="opacity:1" fill="#fb423e" d="M 167.5,59.5 C 169.631,60.3138 171.964,60.8138 174.5,61C 175.893,62.1711 176.727,63.6711 177,65.5C 178.699,64.5939 180.533,64.2606 182.5,64.5C 185.697,74.0909 188.697,83.7576 191.5,93.5C 191.53,94.4972 191.03,95.1639 190,95.5C 187.587,93.0489 185.087,90.7155 182.5,88.5C 180.382,87.0541 178.049,86.3874 175.5,86.5C 175.66,84.8008 175.494,83.1341 175,81.5C 171.749,80.0802 168.915,78.0802 166.5,75.5C 164.486,72.2957 163.153,68.7957 162.5,65C 163.65,62.6836 165.317,60.8502 167.5,59.5 Z"/></g>
<g><path style="opacity:1" fill="#f72d54" d="M 168.5,57.5 C 168.167,58.1667 167.833,58.8333 167.5,59.5C 165.317,60.8502 163.65,62.6836 162.5,65C 163.153,68.7957 164.486,72.2957 166.5,75.5C 168.915,78.0802 171.749,80.0802 175,81.5C 175.494,83.1341 175.66,84.8008 175.5,86.5C 171.264,84.2774 167.264,81.6107 163.5,78.5C 162.482,79.1925 161.482,79.8592 160.5,80.5C 156.119,81.4662 153.119,79.9662 151.5,76C 152.272,74.779 153.272,73.779 154.5,73C 154.167,72.6667 153.833,72.3333 153.5,72C 155.376,71.0816 156.376,69.5816 156.5,67.5C 160.202,63.7966 164.202,60.4633 168.5,57.5 Z"/></g>
<g><path style="opacity:1" fill="#f32261" d="M 156.5,67.5 C 156.376,69.5816 155.376,71.0816 153.5,72C 153.833,72.3333 154.167,72.6667 154.5,73C 153.272,73.779 152.272,74.779 151.5,76C 153.119,79.9662 156.119,81.4662 160.5,80.5C 152.068,86.4177 143.735,92.5844 135.5,99C 134.517,99.5908 133.85,99.2575 133.5,98C 134.608,94.0088 136.108,90.1754 138,86.5C 143.671,79.6627 149.838,73.3293 156.5,67.5 Z"/></g>
<g><path style="opacity:1" fill="#ed5261" d="M 175.5,86.5 C 178.049,86.3874 180.382,87.0541 182.5,88.5C 185.087,90.7155 187.587,93.0489 190,95.5C 191.03,95.1639 191.53,94.4972 191.5,93.5C 193.105,95.3079 193.439,97.3079 192.5,99.5C 186.506,95.4948 180.839,91.1614 175.5,86.5 Z"/></g>
</svg>
