<?xml version="1.0" encoding="UTF-8"?>
<!DOCTYPE svg PUBLIC "-//W3C//DTD SVG 1.1//EN" "http://www.w3.org/Graphics/SVG/1.1/DTD/svg11.dtd">
<svg xmlns="http://www.w3.org/2000/svg" version="1.1" width="1440px" height="432px" style="shape-rendering:geometricPrecision; text-rendering:geometricPrecision; image-rendering:optimizeQuality; fill-rule:evenodd; clip-rule:evenodd" xmlns:xlink="http://www.w3.org/1999/xlink">
<g><path style="opacity:0.963" fill="#fbfafb" d="M 161.5,116.5 C 170.173,116.334 178.84,116.5 187.5,117C 188.167,117.667 188.833,118.333 189.5,119C 196.73,119.189 203.73,120.522 210.5,123C 227.987,131.471 239.653,144.805 245.5,163C 244.421,165.155 243.087,167.155 241.5,169C 230.345,172.926 219.678,177.593 209.5,183C 206.118,183.824 202.784,183.657 199.5,182.5C 193.44,167.471 182.44,161.304 166.5,164C 164.554,165.907 162.554,167.74 160.5,169.5C 159.539,172.43 158.206,175.097 156.5,177.5C 158.206,179.903 159.539,182.57 160.5,185.5C 162.167,187.167 163.833,188.833 165.5,190.5C 170.864,192.844 175.864,195.678 180.5,199C 184.5,200.333 188.5,201.667 192.5,203C 195.167,204.667 197.833,206.333 200.5,208C 202.134,208.494 203.801,208.66 205.5,208.5C 205.5,209.5 205.5,210.5 205.5,211.5C 218.384,215.312 228.884,222.645 237,233.5C 237.49,234.793 237.657,236.127 237.5,237.5C 238.5,237.5 239.5,237.5 240.5,237.5C 240.343,238.873 240.51,240.207 241,241.5C 242.667,244.5 244.333,247.5 246,250.5C 246.063,257.384 247.23,264.051 249.5,270.5C 247.289,277.301 246.122,284.301 246,291.5C 241.288,302.581 234.454,312.247 225.5,320.5C 222.354,322.481 219.354,324.648 216.5,327C 212.887,329.228 208.887,330.562 204.5,331C 203.833,331.667 203.167,332.333 202.5,333C 197.858,332.962 193.525,333.962 189.5,336C 179.5,336.667 169.5,336.667 159.5,336C 155.848,333.918 151.848,332.918 147.5,333C 136.187,328.425 125.687,322.258 116,314.5C 114.121,312.473 112.954,310.14 112.5,307.5C 111.5,307.5 110.5,307.5 109.5,307.5C 105.294,300.281 101.627,292.614 98.5,284.5C 97.1262,281.159 97.4595,277.993 99.5,275C 112.973,270.763 126.639,266.929 140.5,263.5C 142.374,263.39 143.874,264.056 145,265.5C 148.247,273.752 153.413,280.585 160.5,286C 168.343,288.55 176.343,289.05 184.5,287.5C 192.418,283.074 196.251,276.408 196,267.5C 193.984,266.045 193.151,264.045 193.5,261.5C 192.5,261.5 191.5,261.5 190.5,261.5C 190.5,260.5 190.5,259.5 190.5,258.5C 171.606,248.718 152.606,238.884 133.5,229C 131.121,226.528 128.454,224.528 125.5,223C 120.75,218.663 116.583,213.83 113,208.5C 110.693,204.274 108.693,199.941 107,195.5C 106.602,189.658 106.102,183.824 105.5,178C 106.102,172.176 106.602,166.342 107,160.5C 109.7,154.341 112.533,148.341 115.5,142.5C 116.5,142.5 117.5,142.5 118.5,142.5C 121.532,136.628 125.865,131.794 131.5,128C 135.106,125.853 138.773,123.853 142.5,122C 147.919,120.046 153.585,119.046 159.5,119C 160.381,118.292 161.047,117.458 161.5,116.5 Z"/></g>
<g><path style="opacity:0.82" fill="#dfdfdf" d="M 1127.5,116.5 C 1188.17,116.333 1248.83,116.5 1309.5,117C 1311.44,118.903 1313.77,119.736 1316.5,119.5C 1316.5,120.5 1316.5,121.5 1316.5,122.5C 1319.36,123.353 1321.7,125.02 1323.5,127.5C 1324.09,129.865 1325.25,131.865 1327,133.5C 1327.67,194.833 1327.67,256.167 1327,317.5C 1323.19,324.645 1317.69,330.145 1310.5,334C 1249.17,334.667 1187.83,334.667 1126.5,334C 1124.86,332.252 1122.86,331.085 1120.5,330.5C 1118.02,328.696 1116.35,326.363 1115.5,323.5C 1114.5,323.5 1113.5,323.5 1112.5,323.5C 1112.24,320.984 1111.41,318.65 1110,316.5C 1109.33,255.833 1109.33,195.167 1110,134.5C 1111.9,132.559 1112.74,130.226 1112.5,127.5C 1113.5,127.5 1114.5,127.5 1115.5,127.5C 1115.83,124.5 1117.5,122.833 1120.5,122.5C 1120.5,121.5 1120.5,120.5 1120.5,119.5C 1123.48,119.818 1125.81,118.818 1127.5,116.5 Z"/></g>
<g><path style="opacity:0.897" fill="#fefefe" d="M 350.5,328.5 C 349.732,327.737 349.232,326.737 349,325.5C 347.902,326.967 346.402,327.801 344.5,328C 330.592,328.823 316.758,328.656 303,327.5C 304.399,277.291 305.065,226.958 305,176.5C 304.768,172.445 304.268,168.445 303.5,164.5C 298.613,161.215 294.613,161.882 291.5,166.5C 278.92,166.822 266.42,166.489 254,165.5C 253.333,150.5 253.333,135.5 254,120.5C 277.595,119.836 301.262,119.502 325,119.5C 348.738,119.502 372.405,119.836 396,120.5C 396.667,135.5 396.667,150.5 396,165.5C 380.911,166.491 365.745,166.824 350.5,166.5C 350.5,220.5 350.5,274.5 350.5,328.5 Z"/></g>
<g><path style="opacity:0.91" fill="#fdfdfd" d="M 794.5,294.5 C 793.5,294.5 792.5,294.5 791.5,294.5C 791.809,298.785 793.476,302.452 796.5,305.5C 795.626,307.705 796.292,309.538 798.5,311C 797.663,312.011 797.33,313.178 797.5,314.5C 802.973,314.262 806.639,316.595 808.5,321.5C 809.192,320.975 809.692,320.308 810,319.5C 810.687,321.92 810.187,324.087 808.5,326C 803.379,326.178 798.379,327.011 793.5,328.5C 784.197,328.163 774.864,327.996 765.5,328C 763.259,326.478 760.926,325.145 758.5,324C 760.259,322.236 760.426,320.069 759,317.5C 755.662,314.992 752.495,312.325 749.5,309.5C 748.24,307.647 748.24,305.814 749.5,304C 748.437,302.812 747.103,302.312 745.5,302.5C 744.969,299.221 742.969,297.887 739.5,298.5C 739.326,296.139 738.993,293.806 738.5,291.5C 736.302,291.12 734.635,291.787 733.5,293.5C 725.521,282.893 718.021,271.893 711,260.5C 710.5,282.831 710.333,305.164 710.5,327.5C 692.95,327.774 675.617,328.774 658.5,330.5C 657.335,261.001 657.168,191.335 658,121.5C 658.5,121 659,120.5 659.5,120C 690.5,119.333 721.5,119.333 752.5,120C 759.357,120.886 766.023,122.553 772.5,125C 776.402,127.098 780.402,129.098 784.5,131C 787.93,134.69 791.763,137.857 796,140.5C 798.003,143.222 800.003,145.888 802,148.5C 803.806,152.576 805.806,156.576 808,160.5C 807.918,164.848 808.918,168.848 811,172.5C 814.335,196.981 807.502,217.814 790.5,235C 782.968,241.433 774.301,245.766 764.5,248C 763.643,248.689 762.977,249.522 762.5,250.5C 768.112,257.631 773.612,264.964 779,272.5C 780.445,275.09 781.612,277.757 782.5,280.5C 783.5,280.5 784.5,280.5 785.5,280.5C 786.388,283.243 787.555,285.91 789,288.5C 791.064,290.301 792.898,292.301 794.5,294.5 Z M 710.5,166.5 C 721.838,166.333 733.172,166.5 744.5,167C 756.981,172.264 761.315,181.43 757.5,194.5C 754.557,199.347 750.89,203.681 746.5,207.5C 741.872,207.883 737.538,209.05 733.5,211C 725.841,211.5 718.174,211.666 710.5,211.5C 710.5,196.5 710.5,181.5 710.5,166.5 Z"/></g>
<g><path style="opacity:1" fill="#bdd5c6" d="M 1310.5,131.5 C 1308.29,131.152 1306.29,130.319 1304.5,129C 1246.83,128.333 1189.17,128.333 1131.5,129C 1129.8,130.176 1128.14,131.343 1126.5,132.5C 1127.03,130.376 1128.36,128.876 1130.5,128C 1189.5,127.333 1248.5,127.333 1307.5,128C 1308.71,129.039 1309.71,130.206 1310.5,131.5 Z"/></g>
<g><path style="opacity:1" fill="#7fc398" d="M 1310.5,131.5 C 1311.92,132.922 1312.92,134.589 1313.5,136.5C 1311.64,134.295 1309.3,132.961 1306.5,132.5C 1305.57,131.685 1304.57,130.852 1303.5,130C 1246.5,129.167 1189.5,129.333 1132.5,130.5C 1129.88,131.459 1127.88,133.125 1126.5,135.5C 1125.83,135.833 1125.17,136.167 1124.5,136.5C 1124.73,134.938 1125.4,133.605 1126.5,132.5C 1128.14,131.343 1129.8,130.176 1131.5,129C 1189.17,128.333 1246.83,128.333 1304.5,129C 1306.29,130.319 1308.29,131.152 1310.5,131.5 Z"/></g>
<g><path style="opacity:0.222" fill="#f8994f" d="M 517.5,93.5 C 514.541,93.3501 512.041,94.3501 510,96.5C 508.122,102.042 506.788,107.709 506,113.5C 504.211,116.734 502.544,120.068 501,123.5C 500.764,127.339 499.931,131.006 498.5,134.5C 496.87,138.352 495.37,142.352 494,146.5C 492.989,147.337 491.822,147.67 490.5,147.5C 490.337,145.143 490.503,142.81 491,140.5C 494.193,132.36 496.86,124.027 499,115.5C 501.093,112.956 502.093,109.956 502,106.5C 502.667,105.833 503.333,105.167 504,104.5C 503.943,101.028 504.943,98.0277 507,95.5C 507.333,93.1667 507.667,90.8333 508,88.5C 510.737,87.3895 513.571,87.2228 516.5,88C 517.406,89.6995 517.739,91.5328 517.5,93.5 Z"/></g>
<g><path style="opacity:1" fill="#46b26e" d="M 1306.5,132.5 C 1304.69,132.509 1303.02,132.009 1301.5,131C 1246.5,130.333 1191.5,130.333 1136.5,131C 1132.78,131.843 1129.45,133.343 1126.5,135.5C 1127.88,133.125 1129.88,131.459 1132.5,130.5C 1189.5,129.333 1246.5,129.167 1303.5,130C 1304.57,130.852 1305.57,131.685 1306.5,132.5 Z"/></g>
<g><path style="opacity:1" fill="#18a34a" d="M 1306.5,132.5 C 1309.3,132.961 1311.64,134.295 1313.5,136.5C 1313.5,137.167 1313.5,137.833 1313.5,138.5C 1314.48,162.788 1314.81,187.122 1314.5,211.5C 1313.79,186.984 1313.12,162.318 1312.5,137.5C 1309.56,135.455 1306.22,133.955 1302.5,133C 1270.49,132.253 1238.49,132.42 1206.5,133.5C 1206.5,137.167 1206.5,140.833 1206.5,144.5C 1205.5,144.5 1204.5,144.5 1203.5,144.5C 1204,148.759 1203.33,152.759 1201.5,156.5C 1203.29,157.623 1203.62,158.956 1202.5,160.5C 1195.01,163.829 1188.34,168.162 1182.5,173.5C 1180.39,174.783 1178.06,175.616 1175.5,176C 1175.96,176.414 1176.29,176.914 1176.5,177.5C 1165.23,182.007 1155.57,188.674 1147.5,197.5C 1141.52,201.809 1135.52,206.142 1129.5,210.5C 1127.53,211.441 1125.53,212.441 1123.5,213.5C 1122.89,213.376 1122.56,213.043 1122.5,212.5C 1122.33,188.164 1122.5,163.831 1123,139.5C 1124.04,138.756 1124.54,137.756 1124.5,136.5C 1125.17,136.167 1125.83,135.833 1126.5,135.5C 1129.45,133.343 1132.78,131.843 1136.5,131C 1191.5,130.333 1246.5,130.333 1301.5,131C 1303.02,132.009 1304.69,132.509 1306.5,132.5 Z"/></g>
<g><path style="opacity:1" fill="#11a042" d="M 1314.5,211.5 C 1314.5,211.833 1314.5,212.167 1314.5,212.5C 1313.75,213.573 1312.75,213.74 1311.5,213C 1304.48,208.826 1297.82,204.159 1291.5,199C 1287.23,197.532 1283.23,195.532 1279.5,193C 1278.26,191.846 1277.26,190.512 1276.5,189C 1273.38,187.694 1270.71,185.86 1268.5,183.5C 1265.71,179.26 1261.71,176.76 1256.5,176C 1255.74,174.488 1254.74,173.154 1253.5,172C 1250.25,170.423 1247.25,168.423 1244.5,166C 1239.69,164.095 1235.02,161.929 1230.5,159.5C 1223.28,150.898 1215.95,150.564 1208.5,158.5C 1208.5,158.833 1208.5,159.167 1208.5,159.5C 1204.41,161.069 1200.41,162.903 1196.5,165C 1194.38,166.049 1192.72,167.549 1191.5,169.5C 1188.5,170.833 1185.5,172.167 1182.5,173.5C 1188.34,168.162 1195.01,163.829 1202.5,160.5C 1203.62,158.956 1203.29,157.623 1201.5,156.5C 1203.33,152.759 1204,148.759 1203.5,144.5C 1204.5,144.5 1205.5,144.5 1206.5,144.5C 1206.5,140.833 1206.5,137.167 1206.5,133.5C 1238.49,132.42 1270.49,132.253 1302.5,133C 1306.22,133.955 1309.56,135.455 1312.5,137.5C 1313.12,162.318 1313.79,186.984 1314.5,211.5 Z"/></g>
<g><path style="opacity:0.893" fill="#fa7a16" d="M 517.5,93.5 C 518.79,94.0577 519.623,95.0577 520,96.5C 520.054,99.8612 521.054,102.861 523,105.5C 525.381,113.073 527.381,120.74 529,128.5C 531.093,131.044 532.093,134.044 532,137.5C 533.586,141.218 535.252,144.885 537,148.5C 537.495,150.473 537.662,152.473 537.5,154.5C 536.25,154.577 535.417,155.244 535,156.5C 528.75,154.487 525.916,150.154 526.5,143.5C 521.376,145.934 517.376,144.767 514.5,140C 511.388,138.694 508.221,137.528 505,136.5C 502.974,137.52 501.641,139.187 501,141.5C 500.846,138.768 501.346,136.102 502.5,133.5C 502.333,133.167 502.167,132.833 502,132.5C 500.887,133.305 499.721,133.972 498.5,134.5C 499.931,131.006 500.764,127.339 501,123.5C 502.544,120.068 504.211,116.734 506,113.5C 506.788,107.709 508.122,102.042 510,96.5C 512.041,94.3501 514.541,93.3501 517.5,93.5 Z"/></g>
<g><path style="opacity:0.889" fill="#fdfdfd" d="M 902.5,142.5 C 919.167,142.5 935.833,142.5 952.5,142.5C 952.5,163.5 952.5,184.5 952.5,205.5C 974.503,205.333 996.503,205.5 1018.5,206C 1019.66,221.426 1019.82,236.926 1019,252.5C 1018.63,253.416 1018.13,254.25 1017.5,255C 995.836,255.5 974.169,255.667 952.5,255.5C 952.667,276.169 952.5,296.836 952,317.5C 943.909,318.159 935.742,318.493 927.5,318.5C 919.258,318.493 911.091,318.159 903,317.5C 902.5,296.836 902.333,276.169 902.5,255.5C 880.831,255.667 859.164,255.5 837.5,255C 836.206,252.913 835.039,250.746 834,248.5C 833.333,236.5 833.333,224.5 834,212.5C 834.233,210.22 835.066,208.22 836.5,206.5C 858.49,205.5 880.49,205.167 902.5,205.5C 902.5,184.5 902.5,163.5 902.5,142.5 Z"/></g>
<g><path style="opacity:1" fill="#67ba86" d="M 1313.5,138.5 C 1314.12,138.611 1314.62,138.944 1315,139.5C 1315.5,163.831 1315.67,188.164 1315.5,212.5C 1315.17,212.5 1314.83,212.5 1314.5,212.5C 1314.5,212.167 1314.5,211.833 1314.5,211.5C 1314.81,187.122 1314.48,162.788 1313.5,138.5 Z"/></g>
<g><path style="opacity:1" fill="#72ba31" d="M 1230.5,159.5 C 1226.98,159.17 1223.98,157.67 1221.5,155C 1216.86,154.763 1212.53,155.93 1208.5,158.5C 1215.95,150.564 1223.28,150.898 1230.5,159.5 Z"/></g>
<g><path style="opacity:0.363" fill="#f88b63" d="M 490.5,148.5 C 491.43,152.4 491.763,156.4 491.5,160.5C 490.487,163.513 488.487,165.513 485.5,166.5C 485.664,169.187 485.497,171.854 485,174.5C 483.855,175.684 482.688,175.684 481.5,174.5C 480.916,171.017 481.749,168.017 484,165.5C 485.333,160.167 486.667,154.833 488,149.5C 488.671,148.748 489.504,148.414 490.5,148.5 Z"/></g>
<g><path style="opacity:1" fill="#9cc629" d="M 1208.5,159.5 C 1205.09,161.726 1201.76,164.226 1198.5,167C 1195.94,167.384 1193.61,168.217 1191.5,169.5C 1192.72,167.549 1194.38,166.049 1196.5,165C 1200.41,162.903 1204.41,161.069 1208.5,159.5 Z"/></g>
<g><path style="opacity:0.514" fill="#ededed" d="M 350.5,328.5 C 350.249,330.17 349.582,331.67 348.5,333C 332.661,333.828 316.995,333.661 301.5,332.5C 300.841,277.039 300.175,221.706 299.5,166.5C 298.833,166.5 298.167,166.5 297.5,166.5C 295.5,166.5 293.5,166.5 291.5,166.5C 294.613,161.882 298.613,161.215 303.5,164.5C 304.268,168.445 304.768,172.445 305,176.5C 305.065,226.958 304.399,277.291 303,327.5C 316.758,328.656 330.592,328.823 344.5,328C 346.402,327.801 347.902,326.967 349,325.5C 349.232,326.737 349.732,327.737 350.5,328.5 Z"/></g>
<g><path style="opacity:0.008" fill="#000000" d="M 297.5,166.5 C 298.167,166.5 298.833,166.5 299.5,166.5C 299.5,220.5 299.5,274.5 299.5,328.5C 298.883,328.389 298.383,328.056 298,327.5C 297.5,273.834 297.333,220.168 297.5,166.5 Z"/></g>
<g><path style="opacity:0.063" fill="#9e9e9e" d="M 299.5,166.5 C 300.175,221.706 300.841,277.039 301.5,332.5C 299.896,331.713 299.229,330.38 299.5,328.5C 299.5,274.5 299.5,220.5 299.5,166.5 Z"/></g>
<g><path style="opacity:1" fill="#5db334" d="M 1230.5,159.5 C 1235.02,161.929 1239.69,164.095 1244.5,166C 1247.25,168.423 1250.25,170.423 1253.5,172C 1254.74,173.154 1255.74,174.488 1256.5,176C 1261.71,176.76 1265.71,179.26 1268.5,183.5C 1259.8,179.625 1251.47,175.125 1243.5,170C 1240.02,166.518 1236.02,163.852 1231.5,162C 1230.75,161.329 1230.41,160.496 1230.5,159.5 Z"/></g>
<g><path style="opacity:1" fill="#fd512d" d="M 521.5,213.5 C 520.401,216.681 518.401,219.181 515.5,221C 511.975,221.179 508.641,221.679 505.5,222.5C 503.61,222.703 502.11,222.037 501,220.5C 500.105,216.79 499.105,213.123 498,209.5C 495.054,207.17 492.887,204.17 491.5,200.5C 490.372,199.738 489.205,199.071 488,198.5C 487.5,190.841 487.334,183.174 487.5,175.5C 487.787,172.516 489.454,171.183 492.5,171.5C 493.313,175.809 494.147,180.143 495,184.5C 500.706,188.943 506.539,193.277 512.5,197.5C 515.358,202.949 518.358,208.282 521.5,213.5 Z"/></g>
<g><path style="opacity:1" fill="#fd671e" d="M 577.5,238.5 C 576.833,238.833 576.167,239.167 575.5,239.5C 571.338,236.241 566.671,233.408 561.5,231C 560.373,229.247 559.373,227.413 558.5,225.5C 556.166,223.559 553.666,221.893 551,220.5C 550.587,209.418 544.587,203.418 533,202.5C 528.058,197.512 522.558,192.012 516.5,186C 506.718,182.55 500.884,175.717 499,165.5C 495.695,163.894 494.195,161.227 494.5,157.5C 495.103,152.639 496.27,147.973 498,143.5C 497.905,146.994 497.405,150.494 496.5,154C 496.911,156.214 498.245,157.547 500.5,158C 499.549,158.718 499.383,159.551 500,160.5C 503.551,163.194 506.051,166.528 507.5,170.5C 513.146,173.298 517.812,177.464 521.5,183C 523.167,183.333 524.833,183.667 526.5,184C 527.79,186.292 529.457,188.292 531.5,190C 536.561,192.187 541.228,195.02 545.5,198.5C 546.478,198.023 547.311,197.357 548,196.5C 548.966,199.644 550.299,202.644 552,205.5C 556.368,209.533 560.368,213.866 564,218.5C 565.608,221.621 566.441,224.954 566.5,228.5C 567.552,228.351 568.552,228.517 569.5,229C 571.364,232.927 574.031,236.094 577.5,238.5 Z"/></g>
<g><path style="opacity:1" fill="#52b13c" d="M 1191.5,169.5 C 1191.05,170.458 1190.38,171.292 1189.5,172C 1184.53,173.058 1180.53,175.558 1177.5,179.5C 1167.26,185.07 1157.26,191.07 1147.5,197.5C 1155.57,188.674 1165.23,182.007 1176.5,177.5C 1176.29,176.914 1175.96,176.414 1175.5,176C 1178.06,175.616 1180.39,174.783 1182.5,173.5C 1185.5,172.167 1188.5,170.833 1191.5,169.5 Z"/></g>
<g><path style="opacity:1" fill="#75bf90" d="M 1124.5,136.5 C 1124.54,137.756 1124.04,138.756 1123,139.5C 1122.5,163.831 1122.33,188.164 1122.5,212.5C 1122.17,212.5 1121.83,212.5 1121.5,212.5C 1121.5,188.167 1121.5,163.833 1121.5,139.5C 1121.81,137.856 1122.81,136.856 1124.5,136.5 Z"/></g>
<g><path style="opacity:0.35" fill="#dd3f62" d="M 448.5,185.5 C 441.756,186.402 435.089,187.735 428.5,189.5C 421.833,189.5 415.167,189.5 408.5,189.5C 401.011,188.344 393.345,188.178 385.5,189C 382.314,191.04 379.981,193.207 378.5,195.5C 373.94,193.981 371.94,190.981 372.5,186.5C 397.825,185.5 423.158,185.167 448.5,185.5 Z"/></g>
<g><path style="opacity:0.546" fill="#f16f53" d="M 491.5,160.5 C 491.833,160.5 492.167,160.5 492.5,160.5C 492.977,164.866 491.144,167.866 487,169.5C 486.505,171.473 486.338,173.473 486.5,175.5C 485.373,176.122 484.373,176.955 483.5,178C 485.828,185.186 483.161,189.02 475.5,189.5C 474.766,188.292 474.433,186.959 474.5,185.5C 476.017,185.489 477.184,184.823 478,183.5C 478.333,181.167 478.667,178.833 479,176.5C 479.708,175.619 480.542,174.953 481.5,174.5C 482.688,175.684 483.855,175.684 485,174.5C 485.497,171.854 485.664,169.187 485.5,166.5C 488.487,165.513 490.487,163.513 491.5,160.5 Z"/></g>
<g><path style="opacity:0.271" fill="#ea782d" d="M 543.5,167.5 C 542.964,170.665 543.797,173.331 546,175.5C 546.056,178.78 546.889,181.78 548.5,184.5C 556.472,185.498 564.472,185.831 572.5,185.5C 570.156,185.94 568.156,186.94 566.5,188.5C 565.5,188.833 564.833,189.5 564.5,190.5C 561.167,190.5 557.833,190.5 554.5,190.5C 547.562,190.91 540.895,189.743 534.5,187C 532.777,186.225 531.777,184.892 531.5,183C 534.436,179.071 536.936,174.904 539,170.5C 539.908,168.561 541.408,167.561 543.5,167.5 Z"/></g>
<g><path style="opacity:0.511" fill="#e48b39" d="M 572.5,185.5 C 599.167,185.5 625.833,185.5 652.5,185.5C 652.662,187.527 652.495,189.527 652,191.5C 651.329,192.252 650.496,192.586 649.5,192.5C 646.114,190.65 642.448,189.483 638.5,189C 614.502,188.5 590.502,188.333 566.5,188.5C 568.156,186.94 570.156,185.94 572.5,185.5 Z"/></g>
<g><path style="opacity:1" fill="#fade0f" d="M 1230.5,159.5 C 1230.41,160.496 1230.75,161.329 1231.5,162C 1236.02,163.852 1240.02,166.518 1243.5,170C 1251.47,175.125 1259.8,179.625 1268.5,183.5C 1270.71,185.86 1273.38,187.694 1276.5,189C 1277.26,190.512 1278.26,191.846 1279.5,193C 1283.23,195.532 1287.23,197.532 1291.5,199C 1297.82,204.159 1304.48,208.826 1311.5,213C 1312.75,213.74 1313.75,213.573 1314.5,212.5C 1314.83,212.5 1315.17,212.5 1315.5,212.5C 1315.5,221.167 1315.5,229.833 1315.5,238.5C 1314.58,238.018 1313.58,237.685 1312.5,237.5C 1309.09,240.247 1305.42,242.58 1301.5,244.5C 1293.91,248.748 1286.58,253.415 1279.5,258.5C 1274.51,261.826 1269.51,265.159 1264.5,268.5C 1258.59,271.195 1252.93,274.362 1247.5,278C 1242.65,282.54 1237.32,286.207 1231.5,289C 1229.83,290 1228.5,291.333 1227.5,293C 1225.03,293.113 1223.03,294.113 1221.5,296C 1219.19,296.497 1216.86,296.663 1214.5,296.5C 1213.83,295.5 1213.17,294.5 1212.5,293.5C 1210.02,290.682 1207.02,288.682 1203.5,287.5C 1203.72,286.325 1203.39,285.325 1202.5,284.5C 1195.2,281.13 1188.2,277.297 1181.5,273C 1180.21,272.51 1178.87,272.343 1177.5,272.5C 1177.16,271.662 1176.49,271.328 1175.5,271.5C 1170.89,265.52 1164.89,261.52 1157.5,259.5C 1157.5,259.167 1157.5,258.833 1157.5,258.5C 1154.86,255.952 1152.19,253.285 1149.5,250.5C 1143.95,249.11 1139.28,246.276 1135.5,242C 1130.85,241.346 1127.18,239.179 1124.5,235.5C 1123.34,229.193 1123.17,222.859 1124,216.5C 1126.04,214.63 1127.87,212.63 1129.5,210.5C 1131.61,209.217 1133.94,208.384 1136.5,208C 1141.11,203.12 1146.78,200.286 1153.5,199.5C 1153.5,198.5 1153.5,197.5 1153.5,196.5C 1155.91,195.617 1158.24,194.45 1160.5,193C 1165.91,187.989 1171.57,183.489 1177.5,179.5C 1180.53,175.558 1184.53,173.058 1189.5,172C 1190.38,171.292 1191.05,170.458 1191.5,169.5C 1193.61,168.217 1195.94,167.384 1198.5,167C 1201.76,164.226 1205.09,161.726 1208.5,159.5C 1208.5,159.167 1208.5,158.833 1208.5,158.5C 1212.53,155.93 1216.86,154.763 1221.5,155C 1223.98,157.67 1226.98,159.17 1230.5,159.5 Z"/></g>
<g><path style="opacity:1" fill="#737b4d" d="M 1247.5,188.5 C 1247.5,188.167 1247.5,187.833 1247.5,187.5C 1251.83,189.833 1255.17,193.167 1257.5,197.5C 1255.83,196.167 1254.17,194.833 1252.5,193.5C 1251.17,191.5 1249.5,189.833 1247.5,188.5 Z"/></g>
<g><path style="opacity:1" fill="#b0a837" d="M 1225.5,177.5 C 1216.98,176.934 1208.65,177.768 1200.5,180C 1199.62,180.708 1198.95,181.542 1198.5,182.5C 1193.71,183.956 1189.71,186.623 1186.5,190.5C 1185.76,190.369 1185.09,190.536 1184.5,191C 1182.17,194.516 1179.5,197.682 1176.5,200.5C 1178.48,197.222 1180.48,193.889 1182.5,190.5C 1186.52,187.759 1190.52,184.926 1194.5,182C 1195.45,181.517 1196.45,181.351 1197.5,181.5C 1197.5,180.5 1197.5,179.5 1197.5,178.5C 1203.14,177.058 1208.97,176.391 1215,176.5C 1218.68,176.501 1222.18,176.835 1225.5,177.5 Z"/></g>
<g><path style="opacity:1" fill="#12357e" d="M 1247.5,188.5 C 1249.5,189.833 1251.17,191.5 1252.5,193.5C 1252.5,195.167 1252.5,196.833 1252.5,198.5C 1253.5,198.5 1254.5,198.5 1255.5,198.5C 1255.5,199.5 1255.5,200.5 1255.5,201.5C 1258.32,201.657 1260.32,202.991 1261.5,205.5C 1262.71,212.567 1264.05,219.567 1265.5,226.5C 1265.17,227.5 1264.83,228.5 1264.5,229.5C 1259.91,225.709 1254.91,222.709 1249.5,220.5C 1247.6,220.262 1246.26,219.262 1245.5,217.5C 1242.09,214.688 1238.09,213.022 1233.5,212.5C 1224.19,207.357 1214.19,204.69 1203.5,204.5C 1194.83,204.5 1186.17,204.5 1177.5,204.5C 1179.97,199.567 1182.97,194.9 1186.5,190.5C 1191.85,187.766 1197.19,184.933 1202.5,182C 1218.3,178.584 1233.3,180.751 1247.5,188.5 Z"/></g>
<g><path style="opacity:1" fill="#a09c3c" d="M 1227.5,177.5 C 1231.78,177.699 1235.45,179.032 1238.5,181.5C 1235.67,181.037 1233,180.371 1230.5,179.5C 1229.5,178.833 1228.5,178.167 1227.5,177.5 Z"/></g>
<g><path style="opacity:1" fill="#5f6b5b" d="M 1225.5,177.5 C 1226.17,177.5 1226.83,177.5 1227.5,177.5C 1228.5,178.167 1229.5,178.833 1230.5,179.5C 1219.48,177.756 1208.82,178.756 1198.5,182.5C 1198.95,181.542 1199.62,180.708 1200.5,180C 1208.65,177.768 1216.98,176.934 1225.5,177.5 Z"/></g>
<g><path style="opacity:1" fill="#334a6f" d="M 1230.5,179.5 C 1233,180.371 1235.67,181.037 1238.5,181.5C 1241.48,183.467 1244.48,185.467 1247.5,187.5C 1247.5,187.833 1247.5,188.167 1247.5,188.5C 1233.3,180.751 1218.3,178.584 1202.5,182C 1197.19,184.933 1191.85,187.766 1186.5,190.5C 1189.71,186.623 1193.71,183.956 1198.5,182.5C 1208.82,178.756 1219.48,177.756 1230.5,179.5 Z"/></g>
<g><path style="opacity:0.71" fill="#e34e53" d="M 448.5,185.5 C 457.167,185.5 465.833,185.5 474.5,185.5C 474.433,186.959 474.766,188.292 475.5,189.5C 472.287,189.19 469.287,189.523 466.5,190.5C 462.5,190.5 458.5,190.5 454.5,190.5C 445.8,190.711 437.133,190.377 428.5,189.5C 435.089,187.735 441.756,186.402 448.5,185.5 Z"/></g>
<g><path style="opacity:0.999" fill="#fb6f19" d="M 537.5,154.5 C 537.75,155.922 538.583,156.922 540,157.5C 539.962,161.4 541.129,164.733 543.5,167.5C 541.408,167.561 539.908,168.561 539,170.5C 536.936,174.904 534.436,179.071 531.5,183C 531.777,184.892 532.777,186.225 534.5,187C 540.895,189.743 547.562,190.91 554.5,190.5C 559.633,192.059 564.633,194.226 569.5,197C 567.093,198.267 564.76,198.767 562.5,198.5C 563.244,201.443 563.744,204.443 564,207.5C 567.91,211.736 571.41,216.236 574.5,221C 578.167,221.333 581.833,221.667 585.5,222C 586.627,223.753 587.627,225.587 588.5,227.5C 587.758,229.35 586.758,230.016 585.5,229.5C 588.451,232.195 591.118,231.862 593.5,228.5C 594.192,229.025 594.692,229.692 595,230.5C 596.145,229.316 597.312,229.316 598.5,230.5C 593.064,235.601 587.064,239.934 580.5,243.5C 579.5,243.5 578.5,243.5 577.5,243.5C 577.822,241.525 577.822,239.858 577.5,238.5C 574.031,236.094 571.364,232.927 569.5,229C 568.552,228.517 567.552,228.351 566.5,228.5C 566.441,224.954 565.608,221.621 564,218.5C 560.368,213.866 556.368,209.533 552,205.5C 550.299,202.644 548.966,199.644 548,196.5C 547.311,197.357 546.478,198.023 545.5,198.5C 541.228,195.02 536.561,192.187 531.5,190C 529.457,188.292 527.79,186.292 526.5,184C 524.833,183.667 523.167,183.333 521.5,183C 517.812,177.464 513.146,173.298 507.5,170.5C 506.051,166.528 503.551,163.194 500,160.5C 499.383,159.551 499.549,158.718 500.5,158C 498.245,157.547 496.911,156.214 496.5,154C 497.405,150.494 497.905,146.994 498,143.5C 496.27,147.973 495.103,152.639 494.5,157.5C 493.833,158.5 493.167,159.5 492.5,160.5C 492.167,160.5 491.833,160.5 491.5,160.5C 491.763,156.4 491.43,152.4 490.5,148.5C 490.5,148.167 490.5,147.833 490.5,147.5C 491.822,147.67 492.989,147.337 494,146.5C 495.37,142.352 496.87,138.352 498.5,134.5C 499.721,133.972 500.887,133.305 502,132.5C 502.167,132.833 502.333,133.167 502.5,133.5C 501.346,136.102 500.846,138.768 501,141.5C 501.641,139.187 502.974,137.52 505,136.5C 508.221,137.528 511.388,138.694 514.5,140C 517.376,144.767 521.376,145.934 526.5,143.5C 525.916,150.154 528.75,154.487 535,156.5C 535.417,155.244 536.25,154.577 537.5,154.5 Z"/></g>
<g><path style="opacity:0.99" fill="#f78018" d="M 566.5,188.5 C 590.502,188.333 614.502,188.5 638.5,189C 642.448,189.483 646.114,190.65 649.5,192.5C 649.586,193.496 649.252,194.329 648.5,195C 643.046,198.079 638.046,201.746 633.5,206C 632.207,206.49 630.873,206.657 629.5,206.5C 629.5,207.5 629.5,208.5 629.5,209.5C 623.918,211.975 618.918,215.475 614.5,220C 611.832,221.289 609.165,222.456 606.5,223.5C 605.167,223.5 603.833,223.5 602.5,223.5C 602.387,220.951 603.054,218.618 604.5,216.5C 608.183,214.347 612.183,213.014 616.5,212.5C 618.086,210.33 619.42,207.996 620.5,205.5C 617.322,204.019 613.988,202.852 610.5,202C 609.663,200.989 609.33,199.822 609.5,198.5C 605.167,198.5 600.833,198.5 596.5,198.5C 596.663,200.857 596.497,203.19 596,205.5C 595.517,204.552 595.351,203.552 595.5,202.5C 592.428,202.817 589.428,202.484 586.5,201.5C 587.325,200.614 588.325,200.281 589.5,200.5C 589.5,198.833 589.5,197.167 589.5,195.5C 590.978,195.762 592.311,195.429 593.5,194.5C 591.016,192.904 588.516,192.571 586,193.5C 578.742,192.827 571.575,191.827 564.5,190.5C 564.833,189.5 565.5,188.833 566.5,188.5 Z"/></g>
<g><path style="opacity:1" fill="#f72056" d="M 408.5,190.5 C 413.22,190.225 413.554,191.059 409.5,193C 416.409,194.855 422.909,197.688 429,201.5C 428.954,204.633 429.954,207.3 432,209.5C 432.27,212.224 432.77,214.891 433.5,217.5C 432.128,219.62 432.795,220.62 435.5,220.5C 435.343,221.873 435.51,223.207 436,224.5C 440.752,221.867 444.086,223.2 446,228.5C 447.771,229.304 449.271,230.471 450.5,232C 459.077,236.456 467.744,240.623 476.5,244.5C 473.88,246.162 471.213,247.828 468.5,249.5C 468.762,248.022 468.429,246.689 467.5,245.5C 462.305,244.435 457.305,242.768 452.5,240.5C 451.139,238.972 449.972,237.305 449,235.5C 448.667,235.833 448.333,236.167 448,236.5C 444.587,235.423 442.087,233.256 440.5,230C 435.582,229.579 432.249,227.079 430.5,222.5C 427.916,221.607 425.249,221.274 422.5,221.5C 422.5,220.5 422.5,219.5 422.5,218.5C 421.5,218.5 420.5,218.5 419.5,218.5C 419.617,216.516 418.95,214.85 417.5,213.5C 415.018,212.103 412.352,211.269 409.5,211C 408.159,207.994 405.825,206.494 402.5,206.5C 402.335,203.15 402.502,199.817 403,196.5C 403.5,196 404,195.5 404.5,195C 400.459,194.827 396.459,194.327 392.5,193.5C 392.291,192.914 391.957,192.414 391.5,192C 397.044,190.596 402.71,190.096 408.5,190.5 Z"/></g>
<g><path style="opacity:1" fill="#33456e" d="M 1252.5,193.5 C 1254.17,194.833 1255.83,196.167 1257.5,197.5C 1259.5,199.833 1260.83,202.5 1261.5,205.5C 1260.32,202.991 1258.32,201.657 1255.5,201.5C 1255.5,200.5 1255.5,199.5 1255.5,198.5C 1254.5,198.5 1253.5,198.5 1252.5,198.5C 1252.5,196.833 1252.5,195.167 1252.5,193.5 Z"/></g>
<g><path style="opacity:1" fill="#fd7a11" d="M 554.5,190.5 C 557.833,190.5 561.167,190.5 564.5,190.5C 571.575,191.827 578.742,192.827 586,193.5C 588.516,192.571 591.016,192.904 593.5,194.5C 592.311,195.429 590.978,195.762 589.5,195.5C 589.5,197.167 589.5,198.833 589.5,200.5C 588.325,200.281 587.325,200.614 586.5,201.5C 589.428,202.484 592.428,202.817 595.5,202.5C 595.351,203.552 595.517,204.552 596,205.5C 596.497,203.19 596.663,200.857 596.5,198.5C 600.833,198.5 605.167,198.5 609.5,198.5C 609.33,199.822 609.663,200.989 610.5,202C 613.988,202.852 617.322,204.019 620.5,205.5C 619.42,207.996 618.086,210.33 616.5,212.5C 612.183,213.014 608.183,214.347 604.5,216.5C 603.054,218.618 602.387,220.951 602.5,223.5C 603.833,223.5 605.167,223.5 606.5,223.5C 606.5,224.5 606.5,225.5 606.5,226.5C 603.814,227.843 601.148,229.176 598.5,230.5C 597.312,229.316 596.145,229.316 595,230.5C 594.692,229.692 594.192,229.025 593.5,228.5C 591.118,231.862 588.451,232.195 585.5,229.5C 586.758,230.016 587.758,229.35 588.5,227.5C 587.627,225.587 586.627,223.753 585.5,222C 581.833,221.667 578.167,221.333 574.5,221C 571.41,216.236 567.91,211.736 564,207.5C 563.744,204.443 563.244,201.443 562.5,198.5C 564.76,198.767 567.093,198.267 569.5,197C 564.633,194.226 559.633,192.059 554.5,190.5 Z"/></g>
<g><path style="opacity:1" fill="#dbd71b" d="M 1177.5,179.5 C 1171.57,183.489 1165.91,187.989 1160.5,193C 1158.24,194.45 1155.91,195.617 1153.5,196.5C 1153.5,197.5 1153.5,198.5 1153.5,199.5C 1146.78,200.286 1141.11,203.12 1136.5,208C 1133.94,208.384 1131.61,209.217 1129.5,210.5C 1135.52,206.142 1141.52,201.809 1147.5,197.5C 1157.26,191.07 1167.26,185.07 1177.5,179.5 Z"/></g>
<g><path style="opacity:1" fill="#f84639" d="M 486.5,175.5 C 486.833,175.5 487.167,175.5 487.5,175.5C 487.334,183.174 487.5,190.841 488,198.5C 489.205,199.071 490.372,199.738 491.5,200.5C 492.887,204.17 495.054,207.17 498,209.5C 499.105,213.123 500.105,216.79 501,220.5C 502.11,222.037 503.61,222.703 505.5,222.5C 507.155,223.841 508.821,225.341 510.5,227C 508.381,227.342 508.047,228.175 509.5,229.5C 507.901,229.232 506.568,229.566 505.5,230.5C 502.203,230.368 500.537,228.702 500.5,225.5C 492.829,227.486 489.829,224.819 491.5,217.5C 490.946,215.39 490.112,213.39 489,211.5C 482.551,208.867 477.384,204.7 473.5,199C 470.285,198.726 467.619,197.393 465.5,195C 466.685,193.647 468.019,192.48 469.5,191.5C 468.675,190.614 467.675,190.281 466.5,190.5C 469.287,189.523 472.287,189.19 475.5,189.5C 483.161,189.02 485.828,185.186 483.5,178C 484.373,176.955 485.373,176.122 486.5,175.5 Z"/></g>
<g><path style="opacity:1" fill="#678094" d="M 1186.5,190.5 C 1182.97,194.9 1179.97,199.567 1177.5,204.5C 1186.17,204.5 1194.83,204.5 1203.5,204.5C 1205.63,205.314 1207.96,205.814 1210.5,206C 1211.06,206.383 1211.39,206.883 1211.5,207.5C 1199.6,205.725 1187.6,205.059 1175.5,205.5C 1175.5,204.5 1175.5,203.5 1175.5,202.5C 1175.83,201.833 1176.17,201.167 1176.5,200.5C 1179.5,197.682 1182.17,194.516 1184.5,191C 1185.09,190.536 1185.76,190.369 1186.5,190.5 Z"/></g>
<g><path style="opacity:1" fill="#52709d" d="M 1203.5,204.5 C 1214.19,204.69 1224.19,207.357 1233.5,212.5C 1226.05,211.259 1218.72,209.593 1211.5,207.5C 1211.39,206.883 1211.06,206.383 1210.5,206C 1207.96,205.814 1205.63,205.314 1203.5,204.5 Z"/></g>
<g><path style="opacity:1" fill="#ada534" d="M 1257.5,197.5 C 1260.68,199.52 1263.18,202.187 1265,205.5C 1265.12,208.371 1265.78,211.038 1267,213.5C 1267.82,219.349 1267.65,225.015 1266.5,230.5C 1267.18,221.574 1265.51,213.241 1261.5,205.5C 1260.83,202.5 1259.5,199.833 1257.5,197.5 Z"/></g>
<g><path style="opacity:1" fill="#5e79a4" d="M 1226.5,218.5 C 1219.8,217.297 1213.13,215.964 1206.5,214.5C 1195.26,213.181 1183.93,213.181 1172.5,214.5C 1172.5,213.833 1172.5,213.167 1172.5,212.5C 1189.77,210.383 1206.77,211.55 1223.5,216C 1224.57,216.852 1225.57,217.685 1226.5,218.5 Z"/></g>
<g><path style="opacity:1" fill="#f82d49" d="M 408.5,190.5 C 408.5,190.167 408.5,189.833 408.5,189.5C 415.167,189.5 421.833,189.5 428.5,189.5C 437.133,190.377 445.8,190.711 454.5,190.5C 453.737,191.268 452.737,191.768 451.5,192C 455.449,192.807 455.449,193.307 451.5,193.5C 451.281,194.675 451.614,195.675 452.5,196.5C 455.538,198.519 458.871,199.686 462.5,200C 463.667,200.5 464.5,201.333 465,202.5C 465.251,208.832 464.417,214.999 462.5,221C 463.912,222.786 465.579,224.286 467.5,225.5C 468.386,226.325 468.719,227.325 468.5,228.5C 470.838,229.437 473.005,230.77 475,232.5C 476.892,229.597 479.225,226.931 482,224.5C 483.512,226.957 484.846,226.957 486,224.5C 488.477,225.875 489.311,227.709 488.5,230C 491.68,231.357 494.68,232.857 497.5,234.5C 490.262,237.105 483.262,240.439 476.5,244.5C 467.744,240.623 459.077,236.456 450.5,232C 449.271,230.471 447.771,229.304 446,228.5C 444.086,223.2 440.752,221.867 436,224.5C 435.51,223.207 435.343,221.873 435.5,220.5C 432.795,220.62 432.128,219.62 433.5,217.5C 432.77,214.891 432.27,212.224 432,209.5C 429.954,207.3 428.954,204.633 429,201.5C 422.909,197.688 416.409,194.855 409.5,193C 413.554,191.059 413.22,190.225 408.5,190.5 Z"/></g>
<g><path style="opacity:1" fill="#234282" d="M 1206.5,214.5 C 1198.17,214.5 1189.83,214.5 1181.5,214.5C 1181.33,216.861 1180.99,219.194 1180.5,221.5C 1177.71,221.548 1175.87,220.215 1175,217.5C 1174.45,220.263 1173.62,222.93 1172.5,225.5C 1174.11,230.026 1174.78,234.692 1174.5,239.5C 1176.17,239.5 1177.83,239.5 1179.5,239.5C 1179.29,237.856 1179.62,236.356 1180.5,235C 1183.61,233.241 1186.94,232.408 1190.5,232.5C 1190.5,233.5 1190.5,234.5 1190.5,235.5C 1187.68,235.316 1186.01,236.649 1185.5,239.5C 1184.31,240.429 1182.98,240.762 1181.5,240.5C 1181.26,242.973 1179.93,244.64 1177.5,245.5C 1178.25,246.736 1178.58,248.07 1178.5,249.5C 1177.54,249.047 1176.71,248.381 1176,247.5C 1175.72,244.588 1174.89,241.921 1173.5,239.5C 1172.36,234.971 1171.7,230.304 1171.5,225.5C 1171.69,221.81 1172.03,218.143 1172.5,214.5C 1183.93,213.181 1195.26,213.181 1206.5,214.5 Z"/></g>
<g><path style="opacity:1" fill="#7491ae" d="M 1233.5,212.5 C 1238.09,213.022 1242.09,214.688 1245.5,217.5C 1241.5,217.909 1237.83,217.075 1234.5,215C 1233.75,214.329 1233.41,213.496 1233.5,212.5 Z"/></g>
<g><path style="opacity:0.945" fill="#f12f66" d="M 408.5,189.5 C 408.5,189.833 408.5,190.167 408.5,190.5C 402.71,190.096 397.044,190.596 391.5,192C 391.957,192.414 392.291,192.914 392.5,193.5C 396.459,194.327 400.459,194.827 404.5,195C 404,195.5 403.5,196 403,196.5C 402.502,199.817 402.335,203.15 402.5,206.5C 405.825,206.494 408.159,207.994 409.5,211C 412.352,211.269 415.018,212.103 417.5,213.5C 418.95,214.85 419.617,216.516 419.5,218.5C 420.5,218.5 421.5,218.5 422.5,218.5C 422.5,219.5 422.5,220.5 422.5,221.5C 425.249,221.274 427.916,221.607 430.5,222.5C 432.249,227.079 435.582,229.579 440.5,230C 442.087,233.256 444.587,235.423 448,236.5C 448.333,236.167 448.667,235.833 449,235.5C 449.972,237.305 451.139,238.972 452.5,240.5C 457.305,242.768 462.305,244.435 467.5,245.5C 468.429,246.689 468.762,248.022 468.5,249.5C 466.641,249.461 465.308,250.294 464.5,252C 461.167,252.667 457.833,252.667 454.5,252C 443.009,242.498 431.009,233.998 418.5,226.5C 418.5,225.5 418.5,224.5 418.5,223.5C 412.275,221.457 406.942,217.957 402.5,213C 400.067,211.87 397.734,210.704 395.5,209.5C 395.5,208.5 395.5,207.5 395.5,206.5C 394.127,206.657 392.793,206.49 391.5,206C 387.245,202.23 382.911,198.73 378.5,195.5C 379.981,193.207 382.314,191.04 385.5,189C 393.345,188.178 401.011,188.344 408.5,189.5 Z"/></g>
<g><path style="opacity:0.863" fill="#f65d33" d="M 541.5,224.5 C 536.925,225.23 533.591,227.73 531.5,232C 528.733,233.037 526.399,234.537 524.5,236.5C 523.272,237.306 522.272,238.306 521.5,239.5C 521.737,238.209 521.404,237.209 520.5,236.5C 523.688,234.31 526.855,231.976 530,229.5C 532.109,227.139 531.942,225.139 529.5,223.5C 529.918,222.778 530.584,222.278 531.5,222C 529.843,221.275 528.843,221.775 528.5,223.5C 525.753,223.187 523.086,223.52 520.5,224.5C 516.741,225.86 513.075,227.527 509.5,229.5C 508.047,228.175 508.381,227.342 510.5,227C 508.821,225.341 507.155,223.841 505.5,222.5C 508.641,221.679 511.975,221.179 515.5,221C 518.401,219.181 520.401,216.681 521.5,213.5C 525.581,211.094 529.747,208.761 534,206.5C 537.628,210.292 541.628,212.959 546,214.5C 546.682,218.18 545.182,220.68 541.5,222C 542.774,222.977 542.774,223.811 541.5,224.5 Z M 529.5,223.5 C 529.167,223.5 528.833,223.5 528.5,223.5C 528.843,221.775 529.843,221.275 531.5,222C 530.584,222.278 529.918,222.778 529.5,223.5 Z"/></g>
<g><path style="opacity:0.998" fill="#fc5f27" d="M 494.5,157.5 C 494.195,161.227 495.695,163.894 499,165.5C 500.884,175.717 506.718,182.55 516.5,186C 522.558,192.012 528.058,197.512 533,202.5C 544.587,203.418 550.587,209.418 551,220.5C 553.666,221.893 556.166,223.559 558.5,225.5C 559.373,227.413 560.373,229.247 561.5,231C 566.671,233.408 571.338,236.241 575.5,239.5C 572.865,241.826 570.198,244.159 567.5,246.5C 561.526,244.036 556.526,240.203 552.5,235C 548.744,232.8 544.911,231.966 541,232.5C 540.57,229.808 540.737,227.141 541.5,224.5C 542.774,223.811 542.774,222.977 541.5,222C 545.182,220.68 546.682,218.18 546,214.5C 541.628,212.959 537.628,210.292 534,206.5C 529.747,208.761 525.581,211.094 521.5,213.5C 518.358,208.282 515.358,202.949 512.5,197.5C 506.539,193.277 500.706,188.943 495,184.5C 494.147,180.143 493.313,175.809 492.5,171.5C 489.454,171.183 487.787,172.516 487.5,175.5C 487.167,175.5 486.833,175.5 486.5,175.5C 486.338,173.473 486.505,171.473 487,169.5C 491.144,167.866 492.977,164.866 492.5,160.5C 493.167,159.5 493.833,158.5 494.5,157.5 Z"/></g>
<g><path style="opacity:1" fill="#c2b633" d="M 1174.5,205.5 C 1173.06,207.588 1172.39,209.921 1172.5,212.5C 1172.5,213.167 1172.5,213.833 1172.5,214.5C 1170.95,218.034 1170.29,221.867 1170.5,226C 1170.59,230.841 1171.59,235.341 1173.5,239.5C 1174.89,241.921 1175.72,244.588 1176,247.5C 1176.71,248.381 1177.54,249.047 1178.5,249.5C 1178.7,251.685 1179.37,253.685 1180.5,255.5C 1178.54,254.04 1176.7,252.373 1175,250.5C 1173.12,245.451 1171.12,240.451 1169,235.5C 1168.33,228.167 1168.33,220.833 1169,213.5C 1170.98,211.641 1171.98,209.308 1172,206.5C 1172.67,205.748 1173.5,205.414 1174.5,205.5 Z"/></g>
<g><path style="opacity:1" fill="#536d8e" d="M 1261.5,205.5 C 1265.51,213.241 1267.18,221.574 1266.5,230.5C 1259.84,228.836 1254.17,225.503 1249.5,220.5C 1254.91,222.709 1259.91,225.709 1264.5,229.5C 1264.83,228.5 1265.17,227.5 1265.5,226.5C 1264.05,219.567 1262.71,212.567 1261.5,205.5 Z"/></g>
<g><path style="opacity:1" fill="#53635f" d="M 1172.5,214.5 C 1172.03,218.143 1171.69,221.81 1171.5,225.5C 1171.7,230.304 1172.36,234.971 1173.5,239.5C 1171.59,235.341 1170.59,230.841 1170.5,226C 1170.29,221.867 1170.95,218.034 1172.5,214.5 Z"/></g>
<g><path style="opacity:1" fill="#11347d" d="M 1206.5,214.5 C 1213.13,215.964 1219.8,217.297 1226.5,218.5C 1231.8,220.481 1237.14,222.481 1242.5,224.5C 1248.14,229.321 1254.14,233.654 1260.5,237.5C 1262.41,241.041 1261.41,243.208 1257.5,244C 1258.17,244.333 1258.83,244.667 1259.5,245C 1258.15,245.772 1257.32,246.939 1257,248.5C 1255.39,246.061 1254.56,243.394 1254.5,240.5C 1253.17,240.5 1251.83,240.5 1250.5,240.5C 1251.09,243.127 1251.42,245.794 1251.5,248.5C 1248.17,248.5 1246.5,250.167 1246.5,253.5C 1249.88,253.975 1252.22,252.642 1253.5,249.5C 1253.83,250.167 1254.17,250.833 1254.5,251.5C 1253.25,253.334 1252.58,255.334 1252.5,257.5C 1250.59,259.291 1248.92,261.291 1247.5,263.5C 1246.71,265.104 1245.38,265.771 1243.5,265.5C 1237.24,266.927 1231.24,269.093 1225.5,272C 1222.18,272.498 1218.85,272.665 1215.5,272.5C 1215.12,271.069 1214.12,270.236 1212.5,270C 1207.57,270.045 1202.9,269.045 1198.5,267C 1194.42,263.612 1190.75,259.779 1187.5,255.5C 1186.68,254.614 1185.68,254.281 1184.5,254.5C 1183.8,251.457 1181.8,249.79 1178.5,249.5C 1178.58,248.07 1178.25,246.736 1177.5,245.5C 1179.93,244.64 1181.26,242.973 1181.5,240.5C 1182.98,240.762 1184.31,240.429 1185.5,239.5C 1186.01,236.649 1187.68,235.316 1190.5,235.5C 1190.5,234.5 1190.5,233.5 1190.5,232.5C 1186.94,232.408 1183.61,233.241 1180.5,235C 1179.62,236.356 1179.29,237.856 1179.5,239.5C 1177.83,239.5 1176.17,239.5 1174.5,239.5C 1174.78,234.692 1174.11,230.026 1172.5,225.5C 1173.62,222.93 1174.45,220.263 1175,217.5C 1175.87,220.215 1177.71,221.548 1180.5,221.5C 1180.99,219.194 1181.33,216.861 1181.5,214.5C 1189.83,214.5 1198.17,214.5 1206.5,214.5 Z"/></g>
<g><path style="opacity:1" fill="#718ead" d="M 1242.5,224.5 C 1250.21,226.553 1256.21,230.886 1260.5,237.5C 1254.14,233.654 1248.14,229.321 1242.5,224.5 Z"/></g>
<g><path style="opacity:0.647" fill="#fa3a40" d="M 454.5,190.5 C 458.5,190.5 462.5,190.5 466.5,190.5C 467.675,190.281 468.675,190.614 469.5,191.5C 468.019,192.48 466.685,193.647 465.5,195C 467.619,197.393 470.285,198.726 473.5,199C 477.384,204.7 482.551,208.867 489,211.5C 490.112,213.39 490.946,215.39 491.5,217.5C 489.829,224.819 492.829,227.486 500.5,225.5C 500.537,228.702 502.203,230.368 505.5,230.5C 502.975,231.957 500.308,233.291 497.5,234.5C 494.68,232.857 491.68,231.357 488.5,230C 489.311,227.709 488.477,225.875 486,224.5C 484.846,226.957 483.512,226.957 482,224.5C 479.225,226.931 476.892,229.597 475,232.5C 473.005,230.77 470.838,229.437 468.5,228.5C 468.719,227.325 468.386,226.325 467.5,225.5C 465.579,224.286 463.912,222.786 462.5,221C 464.417,214.999 465.251,208.832 465,202.5C 464.5,201.333 463.667,200.5 462.5,200C 458.871,199.686 455.538,198.519 452.5,196.5C 451.614,195.675 451.281,194.675 451.5,193.5C 455.449,193.307 455.449,192.807 451.5,192C 452.737,191.768 453.737,191.268 454.5,190.5 Z"/></g>
<g><path style="opacity:1" fill="#a8cfbd" d="M 1175.5,202.5 C 1175.5,203.5 1175.5,204.5 1175.5,205.5C 1187.6,205.059 1199.6,205.725 1211.5,207.5C 1218.72,209.593 1226.05,211.259 1233.5,212.5C 1233.41,213.496 1233.75,214.329 1234.5,215C 1237.83,217.075 1241.5,217.909 1245.5,217.5C 1246.26,219.262 1247.6,220.262 1249.5,220.5C 1254.17,225.503 1259.84,228.836 1266.5,230.5C 1266.44,233.341 1265.77,236.007 1264.5,238.5C 1264.17,238.5 1263.83,238.5 1263.5,238.5C 1262.61,237.89 1261.61,237.557 1260.5,237.5C 1256.21,230.886 1250.21,226.553 1242.5,224.5C 1237.14,222.481 1231.8,220.481 1226.5,218.5C 1225.57,217.685 1224.57,216.852 1223.5,216C 1206.77,211.55 1189.77,210.383 1172.5,212.5C 1172.39,209.921 1173.06,207.588 1174.5,205.5C 1174.26,204.209 1174.6,203.209 1175.5,202.5 Z"/></g>
<g><path style="opacity:0.993" fill="#fb5431" d="M 541.5,224.5 C 540.737,227.141 540.57,229.808 541,232.5C 544.911,231.966 548.744,232.8 552.5,235C 556.526,240.203 561.526,244.036 567.5,246.5C 570.198,244.159 572.865,241.826 575.5,239.5C 576.167,239.167 576.833,238.833 577.5,238.5C 577.822,239.858 577.822,241.525 577.5,243.5C 578.5,243.5 579.5,243.5 580.5,243.5C 576.63,246.222 572.964,249.222 569.5,252.5C 568.596,251.791 568.263,250.791 568.5,249.5C 564.818,249.335 561.152,249.501 557.5,250C 554.653,254.193 551.487,254.36 548,250.5C 547.178,248.212 546.511,245.878 546,243.5C 543.897,241.084 541.897,241.084 540,243.5C 534.867,241.711 529.7,240.378 524.5,239.5C 524.5,238.5 524.5,237.5 524.5,236.5C 526.399,234.537 528.733,233.037 531.5,232C 533.591,227.73 536.925,225.23 541.5,224.5 Z"/></g>
<g><path style="opacity:1" fill="#adcfb4" d="M 1121.5,139.5 C 1121.5,163.833 1121.5,188.167 1121.5,212.5C 1121.17,221.017 1121.51,229.35 1122.5,237.5C 1122.5,262.167 1122.5,286.833 1122.5,311.5C 1122.83,312.833 1123.17,314.167 1123.5,315.5C 1122.5,315.586 1121.67,315.252 1121,314.5C 1120.17,255.999 1120.33,197.665 1121.5,139.5 Z"/></g>
<g><path style="opacity:1" fill="#b6d2bc" d="M 1313.5,136.5 C 1314.15,136.804 1314.82,137.137 1315.5,137.5C 1316.83,195.665 1316.83,253.665 1315.5,311.5C 1315.5,287.167 1315.5,262.833 1315.5,238.5C 1315.5,229.833 1315.5,221.167 1315.5,212.5C 1315.67,188.164 1315.5,163.831 1315,139.5C 1314.62,138.944 1314.12,138.611 1313.5,138.5C 1313.5,137.833 1313.5,137.167 1313.5,136.5 Z"/></g>
<g><path style="opacity:0.918" fill="#ed5c50" d="M 528.5,223.5 C 528.833,223.5 529.167,223.5 529.5,223.5C 531.942,225.139 532.109,227.139 530,229.5C 526.855,231.976 523.688,234.31 520.5,236.5C 519.68,240.064 517.68,242.731 514.5,244.5C 511.092,245.559 508.759,247.892 507.5,251.5C 506.761,251.631 506.094,251.464 505.5,251C 507.1,248.36 506.766,246.193 504.5,244.5C 512.773,237.845 520.773,230.845 528.5,223.5 Z"/></g>
<g><path style="opacity:1" fill="#fb4a39" d="M 524.5,236.5 C 524.5,237.5 524.5,238.5 524.5,239.5C 529.7,240.378 534.867,241.711 540,243.5C 541.897,241.084 543.897,241.084 546,243.5C 546.511,245.878 547.178,248.212 548,250.5C 551.487,254.36 554.653,254.193 557.5,250C 561.152,249.501 564.818,249.335 568.5,249.5C 568.263,250.791 568.596,251.791 569.5,252.5C 571.985,255.261 573.152,258.594 573,262.5C 574.581,265.751 575.914,269.085 577,272.5C 577.497,275.146 577.664,277.813 577.5,280.5C 578.5,280.5 579.5,280.5 580.5,280.5C 580.477,285.88 581.477,290.88 583.5,295.5C 580.951,297.561 577.951,298.561 574.5,298.5C 573.955,295.187 573.455,291.854 573,288.5C 570.48,287.793 567.98,286.96 565.5,286C 563.203,283.226 561.036,280.392 559,277.5C 556.88,278.459 554.713,278.626 552.5,278C 548.685,273.855 544.519,270.022 540,266.5C 537.915,260.404 534.248,255.404 529,251.5C 528.812,249.939 529.645,249.272 531.5,249.5C 531.5,247.833 531.5,246.167 531.5,244.5C 528.393,244.649 525.393,244.149 522.5,243C 521.663,241.989 521.33,240.822 521.5,239.5C 522.272,238.306 523.272,237.306 524.5,236.5 Z"/></g>
<g><path style="opacity:1" fill="#ded829" d="M 1129.5,210.5 C 1127.87,212.63 1126.04,214.63 1124,216.5C 1123.17,222.859 1123.34,229.193 1124.5,235.5C 1127.18,239.179 1130.85,241.346 1135.5,242C 1139.28,246.276 1143.95,249.11 1149.5,250.5C 1152.19,253.285 1154.86,255.952 1157.5,258.5C 1156.13,258.657 1154.79,258.49 1153.5,258C 1151.29,255.215 1148.62,252.882 1145.5,251C 1141.03,249.931 1137.36,247.597 1134.5,244C 1133.17,243.667 1131.83,243.333 1130.5,243C 1127.64,241.278 1124.97,239.445 1122.5,237.5C 1121.51,229.35 1121.17,221.017 1121.5,212.5C 1121.83,212.5 1122.17,212.5 1122.5,212.5C 1122.56,213.043 1122.89,213.376 1123.5,213.5C 1125.53,212.441 1127.53,211.441 1129.5,210.5 Z"/></g>
<g><path style="opacity:0.875" fill="#f44567" d="M 504.5,244.5 C 506.766,246.193 507.1,248.36 505.5,251C 506.094,251.464 506.761,251.631 507.5,251.5C 505.503,253.513 503.836,255.846 502.5,258.5C 499.186,259.393 496.186,260.726 493.5,262.5C 491.522,264.259 489.356,265.925 487,267.5C 486.517,268.448 486.351,269.448 486.5,270.5C 485.5,270.5 484.5,270.5 483.5,270.5C 483.953,269.542 484.619,268.708 485.5,268C 485.167,267.833 484.833,267.667 484.5,267.5C 482.78,268.934 480.78,269.767 478.5,270C 478.957,270.414 479.291,270.914 479.5,271.5C 477.488,273.341 475.155,274.341 472.5,274.5C 482.316,263.468 492.983,253.468 504.5,244.5 Z"/></g>
<g><path style="opacity:0.998" fill="#f82550" d="M 502.5,258.5 C 502.586,259.496 502.252,260.329 501.5,261C 505.578,261.7 507.078,263.867 506,267.5C 508,268.833 509.667,270.5 511,272.5C 511.69,276.632 512.023,280.632 512,284.5C 514.52,285.207 517.02,286.04 519.5,287C 520.823,287.816 521.489,288.983 521.5,290.5C 519.804,290.315 518.471,289.481 517.5,288C 515.833,287.333 514.167,287.333 512.5,288C 510.957,290.045 511.29,291.545 513.5,292.5C 513.5,292.833 513.5,293.167 513.5,293.5C 510.61,294.798 507.943,296.465 505.5,298.5C 505.768,296.901 505.434,295.568 504.5,294.5C 500.605,293.613 496.771,293.613 493,294.5C 491.715,294.95 490.548,295.617 489.5,296.5C 488.585,295.672 487.919,294.672 487.5,293.5C 488.521,290.247 490.188,287.414 492.5,285C 490.026,284.887 488.026,283.887 486.5,282C 487.448,281.517 488.448,281.351 489.5,281.5C 487.997,278.707 487.33,275.874 487.5,273C 490.712,272.513 491.712,271.013 490.5,268.5C 491.519,266.489 492.519,264.489 493.5,262.5C 496.186,260.726 499.186,259.393 502.5,258.5 Z"/></g>
<g><path style="opacity:1" fill="#109e40" d="M 1122.5,237.5 C 1124.97,239.445 1127.64,241.278 1130.5,243C 1131.83,243.333 1133.17,243.667 1134.5,244C 1137.36,247.597 1141.03,249.931 1145.5,251C 1148.62,252.882 1151.29,255.215 1153.5,258C 1154.79,258.49 1156.13,258.657 1157.5,258.5C 1157.5,258.833 1157.5,259.167 1157.5,259.5C 1163.23,263.893 1169.23,267.893 1175.5,271.5C 1176.49,271.328 1177.16,271.662 1177.5,272.5C 1187.89,279.017 1198.22,285.85 1208.5,293C 1209.79,293.49 1211.13,293.657 1212.5,293.5C 1213.17,294.5 1213.83,295.5 1214.5,296.5C 1214.61,297.117 1214.94,297.617 1215.5,298C 1217.5,298.667 1219.5,298.667 1221.5,298C 1225.44,295.755 1229.1,293.088 1232.5,290C 1238.64,287.532 1243.97,283.865 1248.5,279C 1252.33,277.254 1255.99,275.254 1259.5,273C 1261.24,271.483 1262.91,269.983 1264.5,268.5C 1269.51,265.159 1274.51,261.826 1279.5,258.5C 1281.56,258.313 1283.56,257.813 1285.5,257C 1290.86,252.741 1296.19,248.574 1301.5,244.5C 1305.42,242.58 1309.09,240.247 1312.5,237.5C 1313.58,237.685 1314.58,238.018 1315.5,238.5C 1315.5,262.833 1315.5,287.167 1315.5,311.5C 1313.47,315.525 1310.47,318.525 1306.5,320.5C 1248.21,321.659 1189.87,321.825 1131.5,321C 1128.22,317.891 1125.22,314.724 1122.5,311.5C 1122.5,286.833 1122.5,262.167 1122.5,237.5 Z"/></g>
<g><path style="opacity:1" fill="#4c5d5e" d="M 1184.5,258.5 C 1188.53,261.536 1192.53,264.536 1196.5,267.5C 1195.17,267.167 1193.83,266.833 1192.5,266.5C 1189.5,264.167 1186.83,261.5 1184.5,258.5 Z"/></g>
<g><path style="opacity:1" fill="#afcb1f" d="M 1157.5,259.5 C 1164.89,261.52 1170.89,265.52 1175.5,271.5C 1169.23,267.893 1163.23,263.893 1157.5,259.5 Z"/></g>
<g><path style="opacity:1" fill="#636e51" d="M 1255.5,255.5 C 1253.83,258.492 1251.83,261.159 1249.5,263.5C 1248.83,263.5 1248.17,263.5 1247.5,263.5C 1248.92,261.291 1250.59,259.291 1252.5,257.5C 1253.22,256.449 1254.22,255.782 1255.5,255.5 Z"/></g>
<g><path style="opacity:1" fill="#9f9a36" d="M 1261.5,248.5 C 1258.95,254.709 1254.95,259.709 1249.5,263.5C 1251.83,261.159 1253.83,258.492 1255.5,255.5C 1257.26,252.98 1259.26,250.647 1261.5,248.5 Z"/></g>
<g><path style="opacity:1" fill="#a0c61c" d="M 1301.5,244.5 C 1296.19,248.574 1290.86,252.741 1285.5,257C 1283.56,257.813 1281.56,258.313 1279.5,258.5C 1286.58,253.415 1293.91,248.748 1301.5,244.5 Z"/></g>
<g><path style="opacity:1" fill="#243c73" d="M 1178.5,249.5 C 1181.8,249.79 1183.8,251.457 1184.5,254.5C 1185.68,254.281 1186.68,254.614 1187.5,255.5C 1190.75,259.779 1194.42,263.612 1198.5,267C 1202.9,269.045 1207.57,270.045 1212.5,270C 1214.12,270.236 1215.12,271.069 1215.5,272.5C 1214.17,272.5 1212.83,272.5 1211.5,272.5C 1208.83,272.167 1206.17,271.833 1203.5,271.5C 1203.17,271.5 1202.83,271.5 1202.5,271.5C 1200.25,270.589 1198.25,269.256 1196.5,267.5C 1192.53,264.536 1188.53,261.536 1184.5,258.5C 1183.17,257.5 1181.83,256.5 1180.5,255.5C 1179.37,253.685 1178.7,251.685 1178.5,249.5 Z"/></g>
<g><path style="opacity:1" fill="#2c467d" d="M 1260.5,237.5 C 1261.61,237.557 1262.61,237.89 1263.5,238.5C 1262.83,241.833 1262.17,245.167 1261.5,248.5C 1259.26,250.647 1257.26,252.98 1255.5,255.5C 1254.22,255.782 1253.22,256.449 1252.5,257.5C 1252.58,255.334 1253.25,253.334 1254.5,251.5C 1254.17,250.833 1253.83,250.167 1253.5,249.5C 1252.22,252.642 1249.88,253.975 1246.5,253.5C 1246.5,250.167 1248.17,248.5 1251.5,248.5C 1251.42,245.794 1251.09,243.127 1250.5,240.5C 1251.83,240.5 1253.17,240.5 1254.5,240.5C 1254.56,243.394 1255.39,246.061 1257,248.5C 1257.32,246.939 1258.15,245.772 1259.5,245C 1258.83,244.667 1258.17,244.333 1257.5,244C 1261.41,243.208 1262.41,241.041 1260.5,237.5 Z"/></g>
<g><path style="opacity:1" fill="#949441" d="M 1263.5,238.5 C 1263.83,238.5 1264.17,238.5 1264.5,238.5C 1265.14,242.475 1264.14,245.808 1261.5,248.5C 1262.17,245.167 1262.83,241.833 1263.5,238.5 Z"/></g>
<g><path style="opacity:1" fill="#9e9a38" d="M 1192.5,266.5 C 1193.83,266.833 1195.17,267.167 1196.5,267.5C 1198.25,269.256 1200.25,270.589 1202.5,271.5C 1199.67,271.306 1197,270.639 1194.5,269.5C 1193.6,268.71 1192.93,267.71 1192.5,266.5 Z"/></g>
<g><path style="opacity:1" fill="#48595e" d="M 1243.5,265.5 C 1243.05,266.458 1242.38,267.292 1241.5,268C 1236.63,269.611 1231.97,271.444 1227.5,273.5C 1221.97,273.821 1216.64,273.488 1211.5,272.5C 1212.83,272.5 1214.17,272.5 1215.5,272.5C 1218.85,272.665 1222.18,272.498 1225.5,272C 1231.24,269.093 1237.24,266.927 1243.5,265.5 Z"/></g>
<g><path style="opacity:1" fill="#d7c31f" d="M 1247.5,263.5 C 1248.17,263.5 1248.83,263.5 1249.5,263.5C 1247.71,265.797 1245.71,267.963 1243.5,270C 1230.75,275.296 1217.42,276.963 1203.5,275C 1200.42,273.256 1197.42,271.423 1194.5,269.5C 1197,270.639 1199.67,271.306 1202.5,271.5C 1202.83,271.5 1203.17,271.5 1203.5,271.5C 1204.43,272.315 1205.43,273.148 1206.5,274C 1213.68,274.821 1220.68,274.655 1227.5,273.5C 1231.97,271.444 1236.63,269.611 1241.5,268C 1242.38,267.292 1243.05,266.458 1243.5,265.5C 1245.38,265.771 1246.71,265.104 1247.5,263.5 Z"/></g>
<g><path style="opacity:1" fill="#9b9738" d="M 1203.5,271.5 C 1206.17,271.833 1208.83,272.167 1211.5,272.5C 1216.64,273.488 1221.97,273.821 1227.5,273.5C 1220.68,274.655 1213.68,274.821 1206.5,274C 1205.43,273.148 1204.43,272.315 1203.5,271.5 Z"/></g>
<g><path style="opacity:0.987" fill="#f83e3d" d="M 520.5,236.5 C 521.404,237.209 521.737,238.209 521.5,239.5C 521.33,240.822 521.663,241.989 522.5,243C 525.393,244.149 528.393,244.649 531.5,244.5C 531.5,246.167 531.5,247.833 531.5,249.5C 529.645,249.272 528.812,249.939 529,251.5C 534.248,255.404 537.915,260.404 540,266.5C 544.519,270.022 548.685,273.855 552.5,278C 554.713,278.626 556.88,278.459 559,277.5C 561.036,280.392 563.203,283.226 565.5,286C 567.98,286.96 570.48,287.793 573,288.5C 573.455,291.854 573.955,295.187 574.5,298.5C 577.951,298.561 580.951,297.561 583.5,295.5C 587.505,306.111 591.505,316.777 595.5,327.5C 591.368,325.882 587.035,324.716 582.5,324C 575.699,316.977 567.866,310.477 559,304.5C 557.322,306.282 555.489,306.615 553.5,305.5C 552.907,303.618 552.24,301.785 551.5,300C 547.863,299.041 544.697,297.208 542,294.5C 538.195,288.829 533.861,283.495 529,278.5C 527.148,276.77 527.314,275.604 529.5,275C 523.07,270.571 518.07,264.905 514.5,258C 513.603,253.646 513.603,249.146 514.5,244.5C 517.68,242.731 519.68,240.064 520.5,236.5 Z"/></g>
<g><path style="opacity:1" fill="#c4d018" d="M 1177.5,272.5 C 1178.87,272.343 1180.21,272.51 1181.5,273C 1188.2,277.297 1195.2,281.13 1202.5,284.5C 1203.39,285.325 1203.72,286.325 1203.5,287.5C 1207.02,288.682 1210.02,290.682 1212.5,293.5C 1211.13,293.657 1209.79,293.49 1208.5,293C 1198.22,285.85 1187.89,279.017 1177.5,272.5 Z"/></g>
<g><path style="opacity:1" fill="#83be25" d="M 1264.5,268.5 C 1262.91,269.983 1261.24,271.483 1259.5,273C 1255.99,275.254 1252.33,277.254 1248.5,279C 1243.97,283.865 1238.64,287.532 1232.5,290C 1229.1,293.088 1225.44,295.755 1221.5,298C 1219.5,298.667 1217.5,298.667 1215.5,298C 1214.94,297.617 1214.61,297.117 1214.5,296.5C 1216.86,296.663 1219.19,296.497 1221.5,296C 1223.03,294.113 1225.03,293.113 1227.5,293C 1228.5,291.333 1229.83,290 1231.5,289C 1237.32,286.207 1242.65,282.54 1247.5,278C 1252.93,274.362 1258.59,271.195 1264.5,268.5 Z"/></g>
<g><path style="opacity:0.995" fill="#f71259" d="M 493.5,262.5 C 492.519,264.489 491.519,266.489 490.5,268.5C 491.712,271.013 490.712,272.513 487.5,273C 487.33,275.874 487.997,278.707 489.5,281.5C 488.448,281.351 487.448,281.517 486.5,282C 488.026,283.887 490.026,284.887 492.5,285C 490.188,287.414 488.521,290.247 487.5,293.5C 487.919,294.672 488.585,295.672 489.5,296.5C 490.548,295.617 491.715,294.95 493,294.5C 496.771,293.613 500.605,293.613 504.5,294.5C 502.473,294.338 500.473,294.505 498.5,295C 496.463,297.189 493.963,298.689 491,299.5C 488.021,303.199 485.188,306.365 482.5,309C 478.714,308.863 475.047,308.196 471.5,307C 470.643,307.689 469.977,308.522 469.5,309.5C 470.648,311.149 471.981,312.649 473.5,314C 470.553,313.848 467.553,313.681 464.5,313.5C 464.703,315.638 465.703,317.305 467.5,318.5C 464.241,319.766 460.907,320.266 457.5,320C 456.191,318.249 456.525,316.749 458.5,315.5C 456.563,313.96 455.396,311.96 455,309.5C 454.333,308.167 453.667,308.167 453,309.5C 452.833,309 452.667,308.5 452.5,308C 454.93,303.385 458.596,300.552 463.5,299.5C 463.64,297.876 462.973,296.71 461.5,296C 464.907,293.712 467.24,290.545 468.5,286.5C 469.325,285.614 470.325,285.281 471.5,285.5C 471.399,281.425 473.399,278.925 477.5,278C 478.608,274.732 480.608,272.232 483.5,270.5C 484.5,270.5 485.5,270.5 486.5,270.5C 486.351,269.448 486.517,268.448 487,267.5C 489.356,265.925 491.522,264.259 493.5,262.5 Z"/></g>
<g><path style="opacity:0.986" fill="#f23c56" d="M 521.5,290.5 C 525.047,291.841 528.714,293.008 532.5,294C 533.191,295.067 533.691,296.234 534,297.5C 542.156,304.656 549.989,312.156 557.5,320C 560.292,321.597 563.292,322.597 566.5,323C 569.135,324.311 571.469,325.978 573.5,328C 579.055,328.271 582.388,331.104 583.5,336.5C 581.661,335.492 580.328,333.992 579.5,332C 575.616,331.059 571.949,329.559 568.5,327.5C 564.855,324.747 560.855,322.58 556.5,321C 555.066,318.253 552.733,316.753 549.5,316.5C 546.807,313.804 544.474,310.804 542.5,307.5C 538.08,306.631 534.747,304.298 532.5,300.5C 526.964,299.392 522.63,296.559 519.5,292C 517.17,289.909 515.17,290.075 513.5,292.5C 511.29,291.545 510.957,290.045 512.5,288C 514.167,287.333 515.833,287.333 517.5,288C 518.471,289.481 519.804,290.315 521.5,290.5 Z"/></g>
<g><path style="opacity:1" fill="#f73444" d="M 514.5,244.5 C 513.603,249.146 513.603,253.646 514.5,258C 518.07,264.905 523.07,270.571 529.5,275C 527.314,275.604 527.148,276.77 529,278.5C 533.861,283.495 538.195,288.829 542,294.5C 544.697,297.208 547.863,299.041 551.5,300C 552.24,301.785 552.907,303.618 553.5,305.5C 555.489,306.615 557.322,306.282 559,304.5C 567.866,310.477 575.699,316.977 582.5,324C 587.035,324.716 591.368,325.882 595.5,327.5C 596.959,333.211 598.625,338.878 600.5,344.5C 599.504,344.586 598.671,344.252 598,343.5C 597.781,342.062 597.281,340.729 596.5,339.5C 593.736,341.608 590.736,341.941 587.5,340.5C 586.591,338.625 585.257,337.292 583.5,336.5C 582.388,331.104 579.055,328.271 573.5,328C 571.469,325.978 569.135,324.311 566.5,323C 563.292,322.597 560.292,321.597 557.5,320C 549.989,312.156 542.156,304.656 534,297.5C 533.691,296.234 533.191,295.067 532.5,294C 528.714,293.008 525.047,291.841 521.5,290.5C 521.489,288.983 520.823,287.816 519.5,287C 517.02,286.04 514.52,285.207 512,284.5C 512.023,280.632 511.69,276.632 511,272.5C 509.667,270.5 508,268.833 506,267.5C 507.078,263.867 505.578,261.7 501.5,261C 502.252,260.329 502.586,259.496 502.5,258.5C 503.836,255.846 505.503,253.513 507.5,251.5C 508.759,247.892 511.092,245.559 514.5,244.5 Z"/></g>
<g><path style="opacity:0.956" fill="#f3185e" d="M 483.5,270.5 C 480.608,272.232 478.608,274.732 477.5,278C 473.399,278.925 471.399,281.425 471.5,285.5C 470.325,285.281 469.325,285.614 468.5,286.5C 467.24,290.545 464.907,293.712 461.5,296C 462.973,296.71 463.64,297.876 463.5,299.5C 458.596,300.552 454.93,303.385 452.5,308C 452.667,308.5 452.833,309 453,309.5C 453.667,308.167 454.333,308.167 455,309.5C 455.396,311.96 456.563,313.96 458.5,315.5C 456.525,316.749 456.191,318.249 457.5,320C 460.907,320.266 464.241,319.766 467.5,318.5C 465.703,317.305 464.703,315.638 464.5,313.5C 467.553,313.681 470.553,313.848 473.5,314C 471.981,312.649 470.648,311.149 469.5,309.5C 469.977,308.522 470.643,307.689 471.5,307C 475.047,308.196 478.714,308.863 482.5,309C 485.188,306.365 488.021,303.199 491,299.5C 493.963,298.689 496.463,297.189 498.5,295C 500.473,294.505 502.473,294.338 504.5,294.5C 505.434,295.568 505.768,296.901 505.5,298.5C 504.5,298.5 503.5,298.5 502.5,298.5C 502.5,299.5 502.5,300.5 502.5,301.5C 497.761,303.158 493.761,305.991 490.5,310C 475.69,319.581 461.357,329.914 447.5,341C 444.91,342.445 442.243,343.612 439.5,344.5C 439.5,345.5 439.5,346.5 439.5,347.5C 437.328,348.801 434.995,349.801 432.5,350.5C 432.086,348.192 431.753,345.858 431.5,343.5C 432.907,339.829 433.907,335.995 434.5,332C 434.333,330.5 434.167,329 434,327.5C 433.329,326.748 432.496,326.414 431.5,326.5C 431.2,320.847 433.367,316.514 438,313.5C 439.13,311.067 440.296,308.734 441.5,306.5C 442.5,306.5 443.5,306.5 444.5,306.5C 452.716,294.944 462.05,284.277 472.5,274.5C 475.155,274.341 477.488,273.341 479.5,271.5C 479.291,270.914 478.957,270.414 478.5,270C 480.78,269.767 482.78,268.934 484.5,267.5C 484.833,267.667 485.167,267.833 485.5,268C 484.619,268.708 483.953,269.542 483.5,270.5 Z"/></g>
<g><path style="opacity:0.603" fill="#ebebeb" d="M 794.5,294.5 C 801.499,305.152 808.999,315.486 817,325.5C 817.944,328.347 817.444,330.847 815.5,333C 797.167,333.667 778.833,333.667 760.5,333C 753.338,322.895 746.171,312.729 739,302.5C 738.51,301.207 738.343,299.873 738.5,298.5C 737.5,298.5 736.5,298.5 735.5,298.5C 735.608,296.486 734.942,294.82 733.5,293.5C 734.635,291.787 736.302,291.12 738.5,291.5C 738.993,293.806 739.326,296.139 739.5,298.5C 742.969,297.887 744.969,299.221 745.5,302.5C 747.103,302.312 748.437,302.812 749.5,304C 748.24,305.814 748.24,307.647 749.5,309.5C 752.495,312.325 755.662,314.992 759,317.5C 760.426,320.069 760.259,322.236 758.5,324C 760.926,325.145 763.259,326.478 765.5,328C 774.864,327.996 784.197,328.163 793.5,328.5C 798.379,327.011 803.379,326.178 808.5,326C 810.187,324.087 810.687,321.92 810,319.5C 809.692,320.308 809.192,320.975 808.5,321.5C 806.639,316.595 802.973,314.262 797.5,314.5C 797.33,313.178 797.663,312.011 798.5,311C 796.292,309.538 795.626,307.705 796.5,305.5C 793.476,302.452 791.809,298.785 791.5,294.5C 792.5,294.5 793.5,294.5 794.5,294.5 Z"/></g>
<g><path style="opacity:1" fill="#67b685" d="M 1122.5,311.5 C 1125.22,314.724 1128.22,317.891 1131.5,321C 1189.87,321.825 1248.21,321.659 1306.5,320.5C 1306.03,321.906 1305.03,322.573 1303.5,322.5C 1245.83,322.667 1188.17,322.5 1130.5,322C 1128.3,319.628 1125.96,317.461 1123.5,315.5C 1123.17,314.167 1122.83,312.833 1122.5,311.5 Z"/></g>
<g><path style="opacity:1" fill="#b4d0be" d="M 1123.5,315.5 C 1125.96,317.461 1128.3,319.628 1130.5,322C 1188.17,322.5 1245.83,322.667 1303.5,322.5C 1245.67,323.665 1187.67,323.832 1129.5,323C 1128.44,321.812 1127.1,321.312 1125.5,321.5C 1125.3,319.315 1124.63,317.315 1123.5,315.5 Z"/></g>
<g><path style="opacity:0.126" fill="#dedede" d="M 710.5,327.5 C 710.822,329.722 710.155,331.556 708.5,333C 692.5,333.667 676.5,333.667 660.5,333C 659.619,332.292 658.953,331.458 658.5,330.5C 675.617,328.774 692.95,327.774 710.5,327.5 Z"/></g>
<g><path style="opacity:0.671" fill="#f05b6e" d="M 583.5,336.5 C 585.257,337.292 586.591,338.625 587.5,340.5C 590.736,341.941 593.736,341.608 596.5,339.5C 597.281,340.729 597.781,342.062 598,343.5C 598.671,344.252 599.504,344.586 600.5,344.5C 601.52,348.061 600.52,351.061 597.5,353.5C 593.602,351.202 589.602,349.202 585.5,347.5C 585.5,346.5 585.5,345.5 585.5,344.5C 579.305,342.501 573.972,339.001 569.5,334C 567.067,332.87 564.734,331.704 562.5,330.5C 562.5,329.5 562.5,328.5 562.5,327.5C 561.127,327.657 559.793,327.49 558.5,327C 549.846,319.529 540.513,313.029 530.5,307.5C 530.5,306.5 530.5,305.5 530.5,304.5C 529.127,304.657 527.793,304.49 526.5,304C 522.466,300.002 518.133,296.502 513.5,293.5C 513.5,293.167 513.5,292.833 513.5,292.5C 515.17,290.075 517.17,289.909 519.5,292C 522.63,296.559 526.964,299.392 532.5,300.5C 534.747,304.298 538.08,306.631 542.5,307.5C 544.474,310.804 546.807,313.804 549.5,316.5C 552.733,316.753 555.066,318.253 556.5,321C 560.855,322.58 564.855,324.747 568.5,327.5C 571.949,329.559 575.616,331.059 579.5,332C 580.328,333.992 581.661,335.492 583.5,336.5 Z"/></g>
<g><path style="opacity:0.71" fill="#f04a83" d="M 431.5,326.5 C 432.496,326.414 433.329,326.748 434,327.5C 434.167,329 434.333,330.5 434.5,332C 433.907,335.995 432.907,339.829 431.5,343.5C 431.753,345.858 432.086,348.192 432.5,350.5C 431.167,351.167 429.833,351.833 428.5,352.5C 427.789,350.799 426.455,349.799 424.5,349.5C 423.072,347.205 423.572,345.205 426,343.5C 425.907,340.044 426.907,337.044 429,334.5C 429.333,332.167 429.667,329.833 430,327.5C 430.383,326.944 430.883,326.611 431.5,326.5 Z"/></g>
<g><path style="opacity:0.009" fill="#f0f0f0" d="M 424.5,349.5 C 426.455,349.799 427.789,350.799 428.5,352.5C 426.027,352.912 424.694,351.912 424.5,349.5 Z"/></g>
</svg>
