<?xml version="1.0" encoding="UTF-8"?>
<!DOCTYPE svg PUBLIC "-//W3C//DTD SVG 1.1//EN" "http://www.w3.org/Graphics/SVG/1.1/DTD/svg11.dtd">
<svg xmlns="http://www.w3.org/2000/svg" version="1.1" width="1000px" height="158px" style="shape-rendering:geometricPrecision; text-rendering:geometricPrecision; image-rendering:optimizeQuality; fill-rule:evenodd; clip-rule:evenodd" xmlns:xlink="http://www.w3.org/1999/xlink">
<g><path style="opacity:0.946" fill="#d10a09" d="M 249.5,27.5 C 250.097,27.7352 250.43,28.2352 250.5,29C 247.949,36.3734 245.949,43.8734 244.5,51.5C 219.5,51.5 194.5,51.5 169.5,51.5C 170.955,43.8451 172.955,36.3451 175.5,29C 200.337,28.8321 225.003,28.3321 249.5,27.5 Z"/></g>
<g><path style="opacity:0.905" fill="#f9fbfc" d="M 459.5,27.5 C 468.582,27.0863 477.582,27.5863 486.5,29C 491.036,31.0351 493.369,34.5351 493.5,39.5C 492.825,43.2011 491.991,46.8677 491,50.5C 486.218,51.8023 481.385,51.8023 476.5,50.5C 478.103,47.6564 478.603,44.6564 478,41.5C 471.626,39.0088 465.126,38.8421 458.5,41C 456.683,42.7998 455.516,44.9664 455,47.5C 451.755,58.9804 448.588,70.4804 445.5,82C 445.585,83.1074 445.919,84.1074 446.5,85C 452.833,85.6667 459.167,85.6667 465.5,85C 468.737,81.4694 470.737,77.3027 471.5,72.5C 467.555,71.5091 463.555,71.1758 459.5,71.5C 460.292,67.789 461.292,64.1223 462.5,60.5C 471.141,59.502 479.808,59.1686 488.5,59.5C 485.639,71.9447 482.305,84.278 478.5,96.5C 475.833,97.8333 473.167,97.8333 470.5,96.5C 470,95.5 469.5,94.5 469,93.5C 467.065,95.1022 464.899,96.2689 462.5,97C 454.5,97.6667 446.5,97.6667 438.5,97C 436.413,96.2078 434.579,95.0412 433,93.5C 431.455,88.9534 431.121,84.2867 432,79.5C 435.511,66.4554 439.178,53.4554 443,40.5C 446.37,33.2795 451.87,28.9462 459.5,27.5 Z"/></g>
<g><path style="opacity:0.936" fill="#f9fbfc" d="M 814.5,27.5 C 826.505,27.3335 838.505,27.5001 850.5,28C 859.45,29.6148 864.116,34.9482 864.5,44C 863.736,49.2219 862.736,54.3885 861.5,59.5C 854.833,59.5 848.167,59.5 841.5,59.5C 841.924,55.9661 842.591,52.4661 843.5,49C 843.561,47.2894 842.894,45.956 841.5,45C 833.167,44.3333 824.833,44.3333 816.5,45C 814.919,45.7065 813.419,46.5399 812,47.5C 810.1,51.8658 808.6,56.3658 807.5,61C 807.439,62.7106 808.106,64.044 809.5,65C 822.39,68.7411 835.057,73.0744 847.5,78C 851.36,81.0539 853.36,85.0539 853.5,90C 852.134,99.6319 849.301,108.799 845,117.5C 840.416,124.548 833.916,128.715 825.5,130C 812.833,130.667 800.167,130.667 787.5,130C 778.55,128.385 773.884,123.052 773.5,114C 774.024,107.397 775.857,101.231 779,95.5C 784.803,96.8163 790.636,96.8163 796.5,95.5C 796.833,96 797.167,96.5 797.5,97C 796.396,100.811 795.396,104.645 794.5,108.5C 794.39,110.374 795.056,111.874 796.5,113C 805.5,113.667 814.5,113.667 823.5,113C 826,111.833 827.833,110 829,107.5C 830.245,103.353 831.412,99.1864 832.5,95C 832.561,93.2894 831.894,91.956 830.5,91C 818.786,87.4882 807.12,83.8215 795.5,80C 790.938,78.3729 788.105,75.2062 787,70.5C 786.495,55.3262 791.662,42.4929 802.5,32C 806.432,29.9716 810.432,28.4716 814.5,27.5 Z"/></g>
<g><path style="opacity:0.935" fill="#f9fbfc" d="M 899.5,27.5 C 911.838,27.3335 924.171,27.5001 936.5,28C 945.189,30.178 949.523,35.678 949.5,44.5C 949.331,49.3424 948.331,54.009 946.5,58.5C 939.866,59.4967 933.2,59.83 926.5,59.5C 927.265,56.3669 927.932,53.2003 928.5,50C 928.646,47.9658 927.98,46.2991 926.5,45C 918.167,44.3333 909.833,44.3333 901.5,45C 899.714,45.7845 898.214,46.9512 897,48.5C 895.201,52.7319 893.701,57.0652 892.5,61.5C 893.369,63.8678 895.035,65.3678 897.5,66C 910.168,69.5551 922.502,73.8884 934.5,79C 938.123,83.5611 939.29,88.7277 938,94.5C 934.854,122.482 919.354,134.482 891.5,130.5C 862.855,134.873 853.188,123.54 862.5,96.5C 868.893,96.7929 875.227,96.4596 881.5,95.5C 881.833,96.1667 882.167,96.8333 882.5,97.5C 881.577,101.357 880.577,105.191 879.5,109C 879.439,110.711 880.106,112.044 881.5,113C 890.5,113.667 899.5,113.667 908.5,113C 910.939,112.226 912.773,110.726 914,108.5C 915.324,104.204 916.491,99.8708 917.5,95.5C 917.61,93.626 916.944,92.126 915.5,91C 903.094,87.1978 890.76,83.1978 878.5,79C 874.217,75.9342 871.883,71.7675 871.5,66.5C 873.139,56.5933 876.306,47.26 881,38.5C 885.86,32.4407 892.027,28.7741 899.5,27.5 Z"/></g>
<g><path style="opacity:0.963" fill="#d10a09" d="M 72.5,28.5 C 84.5185,28.1677 96.5185,28.501 108.5,29.5C 101.5,54.1667 94.5,78.8333 87.5,103.5C 87.9767,104.478 88.6433,105.311 89.5,106C 93.8333,106.667 98.1667,106.667 102.5,106C 110.831,80.5167 118.165,54.6834 124.5,28.5C 136.518,28.1677 148.518,28.501 160.5,29.5C 152.567,57.4656 144.734,85.4656 137,113.5C 135.049,122.451 129.549,127.617 120.5,129C 101.167,129.667 81.8333,129.667 62.5,129C 53.0402,126.905 48.8735,121.072 50,111.5C 57.8143,83.8946 65.3143,56.2279 72.5,28.5 Z"/></g>
<g><path style="opacity:0.959" fill="#d10a09" d="M 275.5,28.5 C 296.844,28.167 318.177,28.5003 339.5,29.5C 336.886,36.6745 334.886,44.0079 333.5,51.5C 319.496,51.3334 305.496,51.5001 291.5,52C 289.765,54.1922 288.598,56.6922 288,59.5C 284.135,74.2595 279.969,88.9262 275.5,103.5C 275.977,104.478 276.643,105.311 277.5,106C 291.845,106.167 306.178,106.667 320.5,107.5C 318.185,114.759 316.185,122.092 314.5,129.5C 293.831,129.667 273.164,129.5 252.5,129C 242.554,127.27 238.387,121.437 240,111.5C 246.355,87.4115 253.022,63.4115 260,39.5C 263.37,33.2373 268.537,29.5706 275.5,28.5 Z"/></g>
<g><path style="opacity:0.904" fill="#f9fbfc" d="M 370.5,28.5 C 385.833,28.5 401.167,28.5 416.5,28.5C 416.201,32.5298 415.201,36.3632 413.5,40C 402.818,40.1676 392.151,40.6676 381.5,41.5C 379.519,47.425 377.852,53.425 376.5,59.5C 385.525,59.1685 394.525,59.5018 403.5,60.5C 402.03,64.0485 401.03,67.7151 400.5,71.5C 391.167,71.5 381.833,71.5 372.5,71.5C 370.648,79.893 368.482,88.2264 366,96.5C 361.218,97.8023 356.385,97.8023 351.5,96.5C 358.244,73.9362 364.577,51.2695 370.5,28.5 Z"/></g>
<g><path style="opacity:0.904" fill="#f9fbfc" d="M 423.5,28.5 C 428.214,28.1734 432.88,28.5067 437.5,29.5C 431.031,51.4077 424.864,73.4077 419,95.5C 414.482,97.407 409.648,98.0736 404.5,97.5C 410.677,74.4566 417.011,51.4566 423.5,28.5 Z"/></g>
<g><path style="opacity:0.906" fill="#f9fbfc" d="M 508.5,28.5 C 513.214,28.1734 517.88,28.5067 522.5,29.5C 519.751,38.3331 517.085,47.1665 514.5,56C 522.188,56.8315 529.855,56.6648 537.5,55.5C 540.306,46.609 542.639,37.609 544.5,28.5C 549.544,28.1725 554.544,28.5059 559.5,29.5C 552.541,52.0026 546.208,74.6693 540.5,97.5C 535.833,97.5 531.167,97.5 526.5,97.5C 528.312,87.7526 530.978,78.2526 534.5,69C 526.507,68.5003 518.507,68.3336 510.5,68.5C 508.373,78.2148 506.04,87.8815 503.5,97.5C 498.833,97.5 494.167,97.5 489.5,97.5C 495.37,74.3522 501.703,51.3522 508.5,28.5 Z"/></g>
<g><path style="opacity:0.908" fill="#f9fbfc" d="M 563.5,28.5 C 581.167,28.5 598.833,28.5 616.5,28.5C 615.97,32.2849 614.97,35.9515 613.5,39.5C 606.866,40.4967 600.2,40.83 593.5,40.5C 588.914,59.2612 583.914,77.9279 578.5,96.5C 573.88,97.4933 569.214,97.8266 564.5,97.5C 569.656,78.5432 574.656,59.5432 579.5,40.5C 573.132,40.8297 566.798,40.4963 560.5,39.5C 561.708,35.8777 562.708,32.211 563.5,28.5 Z"/></g>
<g><path style="opacity:0.939" fill="#f9fbfc" d="M 632.5,28.5 C 650.836,28.3334 669.17,28.5001 687.5,29C 696.097,31.1012 700.431,36.6012 700.5,45.5C 698.035,59.6939 693.869,73.3606 688,86.5C 683.534,91.6484 678.034,95.1484 671.5,97C 658.869,98.2919 646.202,98.7919 633.5,98.5C 630.677,108.791 628.011,119.124 625.5,129.5C 618.222,129.561 611.222,129.561 604.5,129.5C 614.244,95.9358 623.578,62.2691 632.5,28.5 Z M 648.5,45.5 C 657.506,45.3336 666.506,45.5002 675.5,46C 677.635,46.7589 678.968,48.2589 679.5,50.5C 677.513,57.4464 675.68,64.4464 674,71.5C 673.27,75.8963 670.77,78.7296 666.5,80C 657.167,80.6667 647.833,80.6667 638.5,80C 641.937,68.5233 645.27,57.0233 648.5,45.5 Z"/></g>
<g><path style="opacity:0.939" fill="#f9fbfc" d="M 734.5,28.5 C 743.5,28.5 752.5,28.5 761.5,28.5C 762.615,62.1629 763.615,95.8296 764.5,129.5C 757.833,129.5 751.167,129.5 744.5,129.5C 744.5,123.167 744.5,116.833 744.5,110.5C 732.495,110.333 720.495,110.5 708.5,111C 705.084,117.167 701.418,123.167 697.5,129C 690.253,129.185 683.087,129.685 676,130.5C 675.833,130.167 675.667,129.833 675.5,129.5C 695.431,95.9699 715.097,62.3033 734.5,28.5 Z M 742.5,49.5 C 743.496,63.9905 743.829,78.6572 743.5,93.5C 735.16,93.6664 726.827,93.4997 718.5,93C 727.159,78.8475 735.159,64.3475 742.5,49.5 Z"/></g>
<g><path style="opacity:0.956" fill="#d10a09" d="M 164.5,65.5 C 189.5,65.5 214.5,65.5 239.5,65.5C 238.045,73.1549 236.045,80.6549 233.5,88C 220.171,88.4999 206.837,88.6666 193.5,88.5C 190.543,102.203 186.876,115.703 182.5,129C 170.819,129.833 159.152,129.666 147.5,128.5C 153.639,107.611 159.305,86.6112 164.5,65.5 Z"/></g>
<g><path style="opacity:0.968" fill="#d10a09" d="M 587.5,111.5 C 588.097,111.735 588.43,112.235 588.5,113C 586.673,118.315 585.006,123.648 583.5,129C 503.263,129.168 423.097,129.668 343,130.5C 343.959,124.774 345.459,119.107 347.5,113.5C 427.666,112.833 507.666,112.167 587.5,111.5 Z"/></g>
</svg>
