<?xml version="1.0" encoding="UTF-8"?>
<!DOCTYPE svg PUBLIC "-//W3C//DTD SVG 1.1//EN" "http://www.w3.org/Graphics/SVG/1.1/DTD/svg11.dtd">
<svg xmlns="http://www.w3.org/2000/svg" version="1.1" width="1500px" height="667px" style="shape-rendering:geometricPrecision; text-rendering:geometricPrecision; image-rendering:optimizeQuality; fill-rule:evenodd; clip-rule:evenodd" xmlns:xlink="http://www.w3.org/1999/xlink">
<g><path style="opacity:1" fill="#ff5b05" d="M 666.5,136.5 C 666.821,138.048 667.821,138.715 669.5,138.5C 696.622,155.054 710.622,179.388 711.5,211.5C 709.633,252.529 689.299,279.695 650.5,293C 626.63,299.183 603.963,296.183 582.5,284C 579.31,281.636 576.31,279.136 573.5,276.5C 573.027,275.094 572.027,274.427 570.5,274.5C 543.377,248.089 535.877,216.756 548,180.5C 552.452,169.9 558.619,160.567 566.5,152.5C 569.089,151.581 571.089,149.914 572.5,147.5C 591.968,130.461 614.635,123.961 640.5,128C 649.688,129.341 658.355,132.174 666.5,136.5 Z"/></g>
<g><path style="opacity:1" fill="#ff5a03" d="M 67.5,138.5 C 68.9063,138.027 69.573,137.027 69.5,135.5C 70.347,134.034 71.6803,133.2 73.5,133C 117.833,132.333 162.167,132.333 206.5,133C 210.127,133.564 213.293,135.064 216,137.5C 218.938,143.9 221.272,150.567 223,157.5C 246.844,243.878 270.844,330.211 295,416.5C 321.027,323.721 347.361,231.055 374,138.5C 376.626,135.769 379.793,133.936 383.5,133C 426.833,132.333 470.167,132.333 513.5,133C 518.071,134.24 520.404,137.24 520.5,142C 479.544,275.319 438.044,408.486 396,541.5C 393.98,544.757 391.146,546.924 387.5,548C 325.167,548.667 262.833,548.667 200.5,548C 198.101,547.269 195.935,546.102 194,544.5C 191.229,540.196 189.229,535.529 188,530.5C 147.822,402.12 107.488,273.786 67,145.5C 66.2967,143.071 66.4634,140.738 67.5,138.5 Z"/></g>
<g><path style="opacity:1" fill="#ff5a03" d="M 1040.5,141.5 C 1041.91,141.027 1042.57,140.027 1042.5,138.5C 1045.63,135.054 1049.63,133.221 1054.5,133C 1100.83,132.333 1147.17,132.333 1193.5,133C 1198.61,134.017 1201.27,137.183 1201.5,142.5C 1200.96,144.942 1200.13,147.275 1199,149.5C 1159.09,213.079 1119.59,276.912 1080.5,341C 1117.53,400.901 1154.7,460.734 1192,520.5C 1195.85,526.508 1199.01,532.842 1201.5,539.5C 1201.25,543.583 1199.25,546.416 1195.5,548C 1145.12,548.982 1094.79,548.648 1044.5,547C 1041.7,545.207 1039.2,543.04 1037,540.5C 1017.82,506.806 998.655,473.139 979.5,439.5C 979.715,437.821 979.048,436.821 977.5,436.5C 976.833,435.167 976.167,433.833 975.5,432.5C 975.715,430.821 975.048,429.821 973.5,429.5C 972.972,428.279 972.305,427.113 971.5,426C 970.668,425.312 970.002,425.479 969.5,426.5C 947.099,466.389 924.099,505.889 900.5,545C 898.283,546.275 895.949,547.275 893.5,548C 845.167,548.667 796.833,548.667 748.5,548C 744.765,546.2 743.098,543.2 743.5,539C 743.494,536.7 743.994,534.534 745,532.5C 784.833,468.667 824.667,404.833 864.5,341C 824.208,276.25 784.041,211.417 744,146.5C 741.724,139.708 743.89,135.208 750.5,133C 798.167,132.333 845.833,132.333 893.5,133C 900.547,133.712 905.714,137.212 909,143.5C 930.414,181.33 952.081,218.997 974,256.5C 995.688,217.777 1017.85,179.443 1040.5,141.5 Z"/></g>
<g><path style="opacity:1" fill="#ff5a03" d="M 1312.5,132.5 C 1335.84,132.333 1359.17,132.5 1382.5,133C 1385.55,133.606 1388.05,135.106 1390,137.5C 1391.48,163.077 1391.98,188.744 1391.5,214.5C 1415.5,214.333 1439.5,214.5 1463.5,215C 1469.15,216.984 1472.15,220.984 1472.5,227C 1471.67,249.094 1471.17,271.261 1471,293.5C 1469.75,296.381 1467.58,298.214 1464.5,299C 1440.17,299.5 1415.84,299.667 1391.5,299.5C 1391.67,324.502 1391.5,349.502 1391,374.5C 1389.83,377.667 1387.67,379.833 1384.5,381C 1360.17,381.667 1335.83,381.667 1311.5,381C 1308.8,380.31 1306.64,378.81 1305,376.5C 1303.52,350.923 1303.02,325.256 1303.5,299.5C 1278.41,299.981 1253.41,299.481 1228.5,298C 1226.62,296.457 1225.12,294.624 1224,292.5C 1223.33,268.833 1223.33,245.167 1224,221.5C 1225.56,218.272 1228.06,216.105 1231.5,215C 1255.5,214.5 1279.5,214.333 1303.5,214.5C 1303.33,189.831 1303.5,165.164 1304,140.5C 1305.44,136.218 1308.28,133.551 1312.5,132.5 Z"/></g>
<g><path style="opacity:1" fill="#ffb48b" d="M 69.5,135.5 C 69.573,137.027 68.9063,138.027 67.5,138.5C 67.427,136.973 68.0937,135.973 69.5,135.5 Z"/></g>
<g><path style="opacity:1" fill="#ffab7f" d="M 666.5,136.5 C 667.71,136.932 668.71,137.599 669.5,138.5C 667.821,138.715 666.821,138.048 666.5,136.5 Z"/></g>
<g><path style="opacity:1" fill="#ffaa7c" d="M 1042.5,138.5 C 1042.57,140.027 1041.91,141.027 1040.5,141.5C 1040.43,139.973 1041.09,138.973 1042.5,138.5 Z"/></g>
<g><path style="opacity:1" fill="#ff9963" d="M 572.5,147.5 C 571.089,149.914 569.089,151.581 566.5,152.5C 567.911,150.086 569.911,148.419 572.5,147.5 Z"/></g>
<g><path style="opacity:1" fill="#ffaf82" d="M 570.5,274.5 C 572.027,274.427 573.027,275.094 573.5,276.5C 571.973,276.573 570.973,275.906 570.5,274.5 Z"/></g>
<g><path style="opacity:1" fill="#ff5a02" d="M 552.5,334.5 C 553.906,334.027 554.573,333.027 554.5,331.5C 555.975,329.59 557.975,328.424 560.5,328C 604.833,327.333 649.167,327.333 693.5,328C 697.896,328.73 700.73,331.23 702,335.5C 702.167,369.833 702.333,404.167 702.5,438.5C 702.66,473.583 702.16,508.583 701,543.5C 699.457,545.378 697.624,546.878 695.5,548C 649.833,548.667 604.167,548.667 558.5,548C 556.376,546.878 554.543,545.378 553,543.5C 551.839,508.417 551.339,473.25 551.5,438C 551.5,403.332 551.833,368.832 552.5,334.5 Z"/></g>
<g><path style="opacity:1" fill="#ffb48b" d="M 554.5,331.5 C 554.573,333.027 553.906,334.027 552.5,334.5C 552.427,332.973 553.094,331.973 554.5,331.5 Z"/></g>
<g><path style="opacity:1" fill="#ffab7f" d="M 973.5,429.5 C 975.048,429.821 975.715,430.821 975.5,432.5C 974.599,431.71 973.932,430.71 973.5,429.5 Z"/></g>
<g><path style="opacity:1" fill="#ffab7f" d="M 977.5,436.5 C 979.048,436.821 979.715,437.821 979.5,439.5C 978.599,438.71 977.932,437.71 977.5,436.5 Z"/></g>
</svg>
